<svg xmlns:dc="http://purl.org/dc/elements/1.1/" xmlns:cc="http://creativecommons.org/ns#" xmlns:rdf="http://www.w3.org/1999/02/22-rdf-syntax-ns#" xmlns:svg="http://www.w3.org/2000/svg" xmlns="http://www.w3.org/2000/svg" xmlns:sodipodi="http://sodipodi.sourceforge.net/DTD/sodipodi-0.dtd" xmlns:inkscape="http://www.inkscape.org/namespaces/inkscape" width="1080" height="1080" viewBox="0 0 1080 1080" id="svg4816" version="1.1" inkscape:version="0.91 r13725" sodipodi:docname="internetofthings.svg">
  <defs id="defs4818"/>
  <sodipodi:namedview id="base" pagecolor="#FFDB6E" bordercolor="#666666" borderopacity="1.0" inkscape:pageopacity="0.0" inkscape:pageshadow="2" inkscape:zoom="0.35355339" inkscape:cx="1201.3111" inkscape:cy="650.21122" inkscape:document-units="px" inkscape:current-layer="layer1" showgrid="false" units="px" inkscape:window-width="1440" inkscape:window-height="1042" inkscape:window-x="0" inkscape:window-y="0" inkscape:window-maximized="0"/>
  <metadata id="metadata4821">
    <rdf:RDF>
      <cc:Work rdf:about="">
        <dc:format>image/svg+xml</dc:format>
        <dc:type rdf:resource="http://purl.org/dc/dcmitype/StillImage"/>
        <dc:title/>
      </cc:Work>
    </rdf:RDF>
  </metadata>
  <g inkscape:label="Layer 1" inkscape:groupmode="layer" id="layer1" transform="translate(0,27.63784)">
    <path id="path3279" d="m 2048.5928,195.16755 c -8.118,-1.48733 -17.4136,0.41113 -26.3316,8.11731 0.6822,-1.66258 -6.9809,-7.70969 -12.8138,0.18766 -20.9167,1.28043 -20.2356,17.84514 -16.1892,25.03303 -11.3222,17.83579 3.8472,26.20744 16.4348,24.03866 2.7661,5.6688 5.2667,13.27657 3.488,19.58984 -3.0183,10.72162 -9.7675,18.52378 -6.9127,19.07775 l 17.9817,3.48877 c 4.3192,-16.27012 10.7504,-29.41062 13.9566,-36.1097 2.9946,-0.70552 6.2147,-1.48478 9.8555,-1.9552 16.9965,5.54531 23.6575,2.81228 23.8113,-4.8694 7.7578,2.81744 18.3478,-4.14208 17.3385,-17.39479 -0.3113,-4.08673 -2.6369,-10.07595 -7.9725,-13.28598 3.2322,-3.89305 2.3769,-16.65359 -13.3869,-13.69747 -4.2013,-5.85639 -11.1373,-10.73267 -19.2564,-12.22005 z m -30.2432,62.35094 c 3.4593,1.95361 6.6115,2.65139 9.753,2.65526 -2.4185,1.63929 -6.5671,2.71056 -9.753,-2.65526 z" inkscape:connector-curvature="0" style="fill:#FFBC5E"/>
    <path id="path3220-9" style="fill:#FFBC5E;stroke: #FFBC5E;stroke-width:0.10499538px" d="m 1986.5738,395.0132 c -2.9826,1.7127 -6.7585,10.8199 -9.1744,9.1898 -2.4166,-1.6322 4.6507,-7.2262 9.1744,-9.1898 z m 0.5917,17.0318 c -2.9544,2.4688 -7.7174,16.5557 -9.6652,13.7862 -1.9478,-2.7694 5.2781,-11.0448 9.6652,-13.7862 z m 2.8275,16.2434 c -1.6083,3.9604 1.3573,19.1749 -2.1216,17.9444 -3.479,-1.2304 -0.7755,-12.8712 2.1216,-17.9444 z m 39.1313,-77.2419 c 9.1638,-6.456 26.3952,-9.0943 37.4921,12.0488 3.2102,6.1163 2.6433,11.0774 2.4871,14.3036 -0.029,0.4491 -0.8655,4.1025 -0.841,4.7828 0.026,0.7083 6.7485,10.4405 7.5792,11.6823 1.6356,2.5643 0.8506,3.2103 0.098,3.9594 l -27.0563,20.8267 c -1.3626,1.0488 -2.3713,-0.2367 -3.1279,-1.3648 l -8.0521,-12.6197 c -0.567,-0.6411 -2.18,-1.1122 -2.9783,-1.5753 -9.4061,-2.9292 -15.1159,-4.2606 -32.0157,-9.1364 l -7.3242,7.6935 c -0.9446,1.0207 -7.8664,-11.3914 -3.7254,-16.3131 l 10.7151,3.7376 15.5573,2.8253 7.286,-5.6614 -4.8016,-7.4005 c -2.5447,-13.3706 1.7416,-22.607 8.71,-27.789 z m 2.1065,2.4664 c -7.6702,6.5577 -7.5261,11.0779 -7.9258,19.1168 0.3481,1.1963 0.2595,2.7586 3.0513,0.3959 l 21.4434,-16.856 c 1.158,-0.9099 2.6152,-0.6901 4.4553,2.0599 l 10.2877,15.3715 c 1.3715,-1.1067 4.5017,-0.7647 0.9707,-9.2707 -8.0584,-17.7228 -24.6109,-17.3769 -32.2819,-10.8185 z" inkscape:connector-curvature="0"/>
    <path style="fill:#FFDB6E;stroke:#FFDB6E;stroke-width:1.99629796;stroke-opacity:1" d="m 2244.0583,267.13438 -5.6621,-56.6722 c 0,0 -11.507,-6.79629 -19.1581,-8.59886 -7.6513,-1.80273 -7.6273,-1.16122 -32.565,0.4481 -24.9378,1.60935 -33.9919,-3.95893 -35.472,-7.07711 -0.1283,0.20197 5.7055,57.92351 5.7055,57.92351 12.7436,4.90963 17.0873,4.54873 32.7988,3.14155 37.5619,-3.36469 39.8091,7.57096 54.35,10.83613 z m -96.8194,-72.31649 c 0.3835,-0.50203 0.7737,-0.66578 1.1788,-0.1035 0.1043,0.1452 0.2398,0.16055 0.2613,0.38426 l 9.2841,96.20911 c -0.095,1.28323 -0.9041,1.54633 -1.6128,0.14151 l -9.2816,-96.20871 c -0.021,-0.22374 0.08,-0.30185 0.1726,-0.42223 z" id="rect3874" inkscape:connector-curvature="0"/>
    <path id="path4800" style="fill:#FFDB6E" d="m 1894.5733,-116.64066 c 1.0022,2.0902 0.1176,4.294 -1.9763,4.9221 -2.0936,0.6281 -4.6035,-0.5571 -5.6058,-2.6474 -1.0023,-2.0902 -0.1176,-4.294 1.9761,-4.9222 2.0937,-0.6281 4.6036,0.5572 5.606,2.6475 z m 6.2654,-9.765 c 1.334,2.7819 0.2359,5.6911 -2.4527,6.4976 -2.6887,0.8068 -5.9496,-0.7945 -7.2836,-3.5764 -1.334,-2.7819 -0.2359,-5.6911 2.4527,-6.4977 2.6887,-0.8066 5.9496,0.7946 7.2836,3.5765 z m 10.5045,-9.5731 c 1.4377,2.9981 0.02,6.2033 -3.1649,7.1591 -3.186,0.9557 -6.9339,-0.6999 -8.3717,-3.698 -1.4377,-2.9981 -0.021,-6.2033 3.165,-7.1591 3.1859,-0.9558 6.9338,0.6999 8.3716,3.698 z m 12.0285,-6.2358 c 1.6451,3.4304 0.7246,6.8877 -2.0558,7.7219 -2.7807,0.8342 -6.3683,-1.2704 -8.0133,-4.7008 -1.6451,-3.4304 -0.7244,-6.8876 2.0561,-7.7219 2.7806,-0.8343 6.3681,1.2704 8.013,4.7008 z m 20.6606,-5.2997 c 2.7786,5.3278 1.5116,10.5632 -2.8297,11.6936 -4.3416,1.1306 -10.1136,-2.2718 -12.8922,-7.5996 -2.7787,-5.3278 -1.5116,-10.5632 2.8298,-11.6937 4.3415,-1.1306 10.1136,2.272 12.8921,7.5997 z m -40.4998,42.686 c -6.3108,-10.5529 4.4672,-19.9062 15.5148,-24.8891 11.2814,-5.0877 24.9326,-3.6982 34.3725,5.2273 10.4446,9.8764 -4.2935,20.5512 2.2651,32.428496 4.9081,8.8882 29.25,16.334 30.821,25.7943 0.7243,4.3576 -4.128,8.2614 -8.5685,9.9961 -3.9543,1.5447 -9.3327,1.0753 -13.6227,-0.5994 -9.722,-3.7951 -14.7864,-13.6073 -22.9815,-19.6636 -11.7035,-8.649 -31.3977,-17.5851 -37.8016,-28.294096 z" inkscape:connector-curvature="0"/>
    <path id="path3055" style="fill:#FFDB6E" d="m 1963.8206,36.088186 c -5.0725,-10.66561 -5.3331,-3.16086 -4.1692,-14.23737 0.039,-1.11224 2.7274,-0.47738 4.193,-2.13724 1.0877,-1.23193 -1.0649,-2.7115 -1.0817,-3.11892 -0.013,-0.31875 0.045,-0.65541 0.1346,-0.74847 0.089,-0.093 0.373,-0.75782 0.6353,-1.47874 0.2622,-0.72092 1.9477,-2.27554 2.673,-3.71517 0.9049,-1.7957001 3.0297,-0.28771 3.2108,-1.5148901 0.2345,-1.59048 -1.6874,0.58945 2.1128,-5.02271 2.1377,-7.21001 9.1404,-6.7031 9.384,-0.29886 0.01,1.16599 -3.2606,4.87823 -5.5083,9.1435701 -2.2477,4.26527 -3.4744,9.08369 -4.4782,9.80624 -0.8976,0.64611 -2.0294,2.06041 -2.0085,2.88755 0.017,0.68468 0.545,1.20769 -0.7461,3.49963 -0.9436,1.67495 -1.6984,3.18118 -1.6798,3.3479 0.04,0.3561 -1.2583,2.00769 -2.6715,3.58706 z m -3.5012,-2.94367 c -0.469,1.31677 3.6359,1.00343 3.2115,1.71228 -0.5784,0.9665 0.357,0.55351 0.3412,0.69564 -0.5237,2.9978 -1.8006,5.03141 -2.2313,6.13293 -0.9157,1.41411 0.4295,2.1145 0.4122,2.27077 -0.017,0.15616 -0.4212,0.56721 -0.8887,0.91555 -0.7708,0.57442 -0.8451,0.77782 -0.8607,2.16919 -0.01,0.84397 0.2389,2.16273 0.5555,2.93362 0.5469,1.33189 0.9524,2.17513 3.2695,6.78474 0.706,1.40451 0.8931,2.06222 0.6561,2.27512 -0.2288,0.20548 -0.2438,0.8438 -0.048,2.02435 0.1571,0.94729 0.1693,2.05196 0.025,2.45368 -0.1443,0.40169 -0.1354,0.73985 0.018,0.75403 0.154,0.0141 0.7457,0.49173 1.3085,1.06724 1.2712,1.29986 2.7636,1.85193 5.4554,2.01574 0.9474,0.0577 1.4382,-0.53567 0.6951,-0.84042 -0.6443,-0.26428 3.7194,-3.05717 5.4934,-3.51755 1.787,-0.46373 3.7305,-0.4198 4.1949,0.099 0.4277,0.47805 -0.6618,1.93906 -2.4466,3.27425 -0.8413,0.62936 -2.048,1.73526 -2.6805,2.45805 -0.9338,1.06713 -1.2991,1.30039 -1.962,1.23934 -0.449,-0.0413 -0.9142,-0.28313 -1.0339,-0.53482 -0.1621,-0.34066 -0.3039,-0.12451 -0.5576,0.85311 -0.4112,1.58462 -2.0663,4.09804 -3.2186,4.89378 -0.4609,0.31821 -0.848,0.7155 -0.8657,0.87542 -0.05,0.45379 -5.9306,5.04663 -6.804,5.31565 -0.4291,0.13209 -1.3383,0.49115 -2.0239,0.79409 -0.6857,0.30288 -1.5122,0.53887 -1.8366,0.52394 -0.3243,-0.0155 -0.9678,0.0732 -1.4299,0.19794 -0.6033,0.1628 -1.0592,0.12619 -1.6158,-0.13214 -1.4932,-0.69237 -3.8548,-0.71754 -6.4397,-0.0692 -2.9203,0.73259 -4.3251,0.89355 -7.6558,0.8754 -3.5139,-0.0189 -4.4857,-0.235 -5.4406,-1.22823 -0.4072,-0.42363 -0.5277,-0.7968 -0.3647,-1.14095 0.2985,-0.63024 -0.1869,-1.33589 -0.9651,-1.40761 -0.3202,-0.0296 -1.0996,0.24628 -1.7358,0.61776 -1.4669,0.85653 -5.7233,2.46845 -7.3093,2.76704 -3.1536,0.59355 -4.4406,0.003 -8.9701,-4.1568 -2.4224,-2.22483 -4.4959,-6.23532 -5.0366,-9.73697 -0.5017,-3.25053 -0.845,-4.71954 -1.4388,-6.16786 -0.9253,-2.25677 -1.1546,-3.67046 -0.6916,-4.29859 0.2585,-0.35074 0.4522,-2.08688 0.6499,-5.78968 0.2657,-4.97672 0.4334,-6.00591 1.5187,-9.62336 0.2242,-0.74713 0.372,-0.83826 1.3417,-0.82312 1.5245,0.0237 2.1355,-0.79627 1.8367,-2.45117 -0.1191,-0.65986 -0.5041,-1.49468 -0.851,-1.85358 -0.3482,-0.36032 -0.5653,-0.87794 -0.483,-1.16032 0.1631,-0.55889 -0.4575,-2.05395 -0.8709,-2.09205 -0.1417,-0.0131 -0.099,-0.62723 0.095,-1.36063 0.5118,-1.93104 0.1156,-2.94801 -1.189,-3.06821 -0.7649,-0.0705 -1.2809,-0.38561 -2.2133,-1.34511 -1.5149,-1.55891 -4.3942,-5.88134 -4.5444,-6.81753 -0.062,-0.38383 -0.4978,-1.44904 -0.9604,-2.37081 -0.5217,-1.03924 -0.755,-1.86177 -0.6131,-2.16126 0.1258,-0.26572 0.02,-1.07948 -0.2439,-1.81453 -0.5034,-1.40006 -0.5528,-5.18383 -0.082,-6.3726501 0.1418,-0.35829 0.7516,-0.93214 1.354,-1.27 1.0197,-0.57172 1.1832,-0.58116 2.4489,-0.19704 1.5507,0.47067 4.487,3.1084801 5.1308,4.6145701 0.2076,0.48573 0.7717,1.38087 1.2534,1.98354 0.8279,1.03588 0.8669,1.20705 0.6589,3.08714 -0.1808,1.63389 -0.1056,2.30511 0.4454,3.76031 0.864,2.28162 1.7797,4.31632 1.4509,5.43731 -0.1597,0.54444 -0.7507,0.94302 -0.5436,1.26496 0.2202,0.3424 0.2348,0.62307 0.031,0.80598 -0.1723,0.1548 -0.2966,0.38638 -0.2793,0.51519 0.051,0.37556 -0.5417,1.23313 -1.081,1.56563 -0.5112,0.31515 -0.3466,0.32027 1.5352,0.0229 0.5914,-0.0934 0.6635,0.36664 0.098,0.61761 -0.2418,0.10747 -0.1582,0.25574 0.2481,0.43707 0.4022,0.17952 0.5926,0.50498 0.5447,0.93774 -0.044,0.3986 0.1265,0.739 0.4329,0.85983 0.2791,0.11003 1.071,0.79856 1.7665,1.53217 0.6956,0.73359 1.5366,1.35874 1.8657,1.3891 0.3292,0.0303 0.988,-0.28997 1.4681,-0.71006 0.4801,-0.42007 1.0245,-0.85352 1.1996,-0.96299 0.1752,-0.10953 0.8424,-0.52455 1.4821,-0.92006 1.4315,-0.88522 2.2921,-2.77973 1.9193,-4.20202 -0.1271,-0.4847 -0.2152,-1.67914 -0.2063,-2.65636 0.015,-1.68212 0.057,-1.80941 0.8994,-2.43613 0.4894,-0.36397 1.1187,-0.6408 1.402,-0.61467 0.7952,0.0733 1.1936,-1.21577 0.5346,-1.73438 -0.617,-0.48549 -0.8017,-1.7447 -0.3506,-2.35689 0.4154,-0.56359 0.1065,-1.56393 -0.8244,-2.67948 -1.4408,-1.72648 -1.9006,-2.44951 -2.0134,-3.15254 -0.1014,-0.63251 -0.8787,-2.20115 -1.5054,-3.05493 -0.5711,-0.77814 -2.4558,-7.6095101 -2.3544,-8.5262701 0.062,-0.55598 -0.071,-1.69923 -0.2935,-2.53762996 -0.3488,-1.31559 -0.3331,-1.88312004 0.12,-4.18162004 0.461,-2.33919 0.644,-2.79687 1.5134,-3.71512 0.6736,-0.71148 1.3735,-1.12469 2.1904,-1.29437 3.4794,-0.44121 5.2147,-0.79952 4.7117,2.87824 1.4983,0.77774 1.7599,2.32052 0.8377,6.20689004 1.417,3.65098996 2.3648,6.98539996 0.8589,9.78320006 -0.6645,1.23462 0.2494,3.6422 -0.057,4.93726 -0.2924,1.23764 -0.6354,2.42331 -0.764,2.63458 -0.1286,0.21135 -0.2637,0.50317 -0.3033,0.64832 -0.04,0.14509 -0.2173,0.67652 -0.3901,1.18127 -0.2016,0.5891 -0.2013,1.32396 0,2.05363 0.19,0.70556 0.1894,1.27006 0,1.48794 -0.5243,0.61003 -0.4664,1.28128 0.096,1.14157 0.4216,-0.10476 0.4603,0.003 0.2433,0.64789 -0.2056,0.61059 -0.05,1.15578 0.7337,2.57816 1.0838,1.96786 0.9208,1.90102 3.7897,1.49879 0.6624,-0.0929 1.7132,-0.19082 2.3406,-0.22391 0.9578,-0.0505 1.2318,-0.21476 1.694,-0.99357 0.3891,-0.65535 0.527,-1.29207 0.4719,-2.17124 -0.043,-0.68436 -0.056,-1.72608 -0.031,-2.31892 0.025,-0.59275 -0.031,-1.32276 -0.1267,-1.6177 -0.1387,-0.42929 -0.083,-0.49331 0.2947,-0.31942 0.3238,0.14899 0.4961,0.0772 0.5542,-0.23633 0.1433,-0.77334 0.087,-1.5322 -0.1276,-1.69396 -0.2123,-0.15984 -0.4512,-1.49692 -0.3956,-2.20046 0.018,-0.22151 -0.1591,-0.9957 -0.3935,-1.71838 -0.3553,-1.09521 -0.3554,-1.79328 0.01,-4.19176 0.3988,-2.6191601 0.3683,-6.6135101 -0.052,-7.4013001 -0.084,-0.15763 0.012,-2.08848 0.2063,-4.29211996 0.3153,-3.56722004 0.292,-4.14008004 -0.1917,-5.21636004 -0.456,-1.01447 -0.5017,-1.6385 -0.2738,-3.88815 0.2508,-2.4749199 0.3645,-2.8287799 1.4759,-4.6315799 0.8298,-1.34593 1.4429,-2.0243 1.9648,-2.1858 0.9733,-0.30107 2.9426,-0.1199 3.7232,0.34304 0.7649,0.45374 3.5393,3.71869 3.9588,4.65891 0.5395,1.2094499 0.7277,3.4779499 0.5273,6.2023499 -0.1061,1.4412 -0.107,3.07485 -0.013,3.63369 0.175,1.03970004 -1.1705,10.38748 -1.5622,10.85343 -0.1124,0.13376 -0.4859,1.5985601 -0.8232,3.2544701 -0.3994,1.96096 -0.9384,3.64236 -1.543,4.81984 -0.9722,1.89318 -1.6784,4.32696 -1.7303,5.92678 -0.017,0.51914 -0.1207,1.82633 -0.2195,2.90439 -0.1588,1.73228 -0.2606,2.00612 -0.8811,2.35329 -0.9176,0.51344 -0.6215,1.28603 0.3521,0.91996 0.4981,-0.1872 0.7258,-0.13854 1.0499,0.22351 0.4256,0.47568 0.4593,0.62533 0.3869,1.77701 -0.032,0.51106 0.1346,0.70359 0.6971,0.81656 0.5828,0.11699 3.8495,1.18604 4.5033,0.44278 2.1592,0.0837 0.011,-0.12364 3.9302,-1.18234 z m -17.7656,14.40822 c -0.5685,-0.12075 -1.6752,0.0898 -2.2988,0.51517 -0.8929,0.60902 -2.9101,0.86519 -3.157,0.40225 -0.086,-0.16125 -0.549,-0.32949 -1.0332,-0.37409 -0.4842,-0.0446 -0.8171,0.0362 -0.7421,0.17674 0.075,0.14056 -0.3222,0.61742 -0.877,1.06041 -0.8963,0.71567 -1.0068,0.93033 -0.9668,1.95653 0.038,0.9753 -0.074,1.25859 -0.7456,1.79941 -0.4376,0.3522 -0.8976,0.84586 -1.021,1.10629 -0.1233,0.26041 -0.6729,0.57031 -1.2241,0.68178 -1.4365,0.29057 -1.8945,1.12782 -1.1733,2.14887 0.5106,0.72298 0.521,0.93675 0.115,2.22531 -0.356,1.13016 -0.383,1.80282 -0.141,3.28386 0.667,4.08044 2.04,7.5757 3.0237,7.66635 0.2248,0.0203 0.5631,0.26982 0.7442,0.55881 0.181,0.28902 0.9171,0.72474 1.6442,0.96297 0.7271,0.23828 1.5137,0.51876 1.7464,0.62584 0.2379,0.10947 0.5201,0.0251 0.6421,-0.19442 0.1194,-0.21599 0.7096,-0.53287 1.3094,-0.6993 0.5999,-0.1664 1.3556,-0.64789 1.684,-1.07052 0.3284,-0.42262 0.8083,-0.80845 1.0583,-0.85767 0.3321,-0.0654 0.5303,-0.56985 0.7356,-1.87641 0.2325,-1.47903 0.4367,-1.93399 1.1803,-2.63001 1.0341,-0.96792 1.2038,-1.17754 1.6915,-2.05889 1.4164,-2.56016 2.4079,-5.06657 2.7383,-6.91589 0.2091,-1.17092 0.7515,-2.88595 1.1998,-3.81163 0.6817,-1.40739 0.7744,-1.85303 0.5972,-2.71758 -0.144,-0.70225 -0.3809,-1.0494 -0.7417,-1.0827 -0.7316,-0.0674 -2.4889,0.31958 -3.0666,0.67261 -1.031,0.63019 -1.6976,0.54364 -2.11,-0.27043 -0.2173,-0.429 -0.419,-0.90121 -0.4583,-1.04815 -0.031,-0.11683 -0.1643,-0.19522 -0.3538,-0.23545 z m 57.7195,4.36378 c 0.3158,0.0957 0.4399,0.27273 0.6358,0.61652 0.2257,0.3962 0.6534,0.81498 0.9528,0.93307 0.7084,0.27942 0.8177,1.50041 0.2175,2.47143 -0.6572,1.06313 -5.6806,4.8149 -7.4124,5.53846 -0.7838,0.3276 -1.4304,0.70447 -1.4453,0.83901 -0.087,0.78296 -2.8212,2.36641 -4.434,2.56693 -0.8131,0.10111 -2.0967,-0.0671 -4.1997,-0.55604 -0.9592,-0.22295 -1.327,-0.43854 -1.2969,-0.75339 0.023,-0.24135 -0.172,-0.74929 -0.4307,-1.13016 -0.4128,-0.60777 -0.414,-0.77337 0,-1.35236 0.2603,-0.3628 1.1203,-1.66045 1.9124,-2.88368 1.3444,-2.07651 1.6068,-2.31551 3.8884,-3.58069 4.2747,-2.37033 5.9313,-2.84585 9.8259,-2.82244 0.9579,0.006 1.4687,0.0179 1.7846,0.11361 z" inkscape:connector-curvature="0"/>
    <path id="path1074" d="m 1601.5504,608.29291 -2.2193,5.2461 -1.8733,-3.2243 -1.992,1.4141 c 1.1397,1.9528 2.0408,3.7731 2.2878,4.075 l -2.7054,6.1379 -2.1353,-3.9571 1.6246,-2.3515 -2.8295,-2.1528 -0.7004,1.0082 -0.7117,-1.319 -3.04,1.7653 0.5643,1.062 -0.7639,-0.025 -0.1525,3.6656 2.9692,0.1128 3.415,6.3683 -2.2628,5.3741 -0.5285,-1.0053 -3.0759,1.7086 1.8224,3.5372 -2.4254,5.7319 -2.7696,-3.8763 1.8001,-4.3347 -3.1872,-1.4639 -1.0265,2.4591 -3.2588,-4.5496 3.5817,-8.3301 3.6079,-0.6731 -0.6295,-3.5969 -1.2616,0.2217 1.0121,-2.3349 -3.1907,-1.4941 -1.1023,2.5607 -0.7698,-1.0665 -2.7846,2.1926 1.8991,2.7002 -2.776,6.481 -6.2369,-8.7058 1.734,-6.1342 -3.3139,-1.0495 -1.01,3.5908 -2.9748,-4.1261 c -0.9281,0.7308 -1.8564,1.4616 -2.7846,2.1925 l 3.2912,4.5761 -3.6108,0.1527 0.1646,3.6253 6,-0.2418 5.2876,7.3557 -4.3279,0.029 -1.1929,-2.6673 -3.155,1.5348 0.5174,1.1598 -1.4631,0 0.021,3.6438 1.1712,0.01 -0.4154,0.6962 2.9487,1.9232 1.5602,-2.6496 6.9619,-0.027 3.363,4.6894 -1.0845,-0.015 -0.038,3.6511 3.7835,0.071 3.8199,5.3362 -4.9085,0.5627 -2.6761,-3.8269 -2.8206,2.1358 1.4817,2.1403 -5.3664,0.6516 -5.0639,-7.4456 1.2696,-3.6239 -3.2812,-1.2681 -0.4376,1.2506 -1.4171,-2.0873 -2.8529,2.1093 1.5897,2.3105 -1.2975,0.1649 0.3989,3.6262 3.2039,-0.3767 3.9345,5.8118 -7.8553,0.8046 -4.1811,-4.6774 -2.5473,2.4686 2.4289,2.7246 -4.8763,0.5893 0.3989,3.6262 5.4529,-0.6627 -1.7125,3.3431 3.0715,1.7239 2.8286,-5.5382 6.266,-0.6331 -2.1708,3.9224 -2.785,-0.2895 -0.3326,3.6275 1.1853,0.1251 -0.7224,1.3175 2.9993,1.8555 0.5779,-1.054 0.3774,0.718 3.1048,-1.7122 -1.4055,-2.7323 3.4999,-6.2975 5.5717,-0.647 -0.5597,0.9597 2.9774,1.9196 1.9684,-3.4062 4.5014,-0.5416 -2.068,5.288 -4.4979,0.5718 0.4277,3.6226 2.5373,-0.3226 -2.0716,5.2578 -8.6892,1.0124 -2.3925,-2.9132 -2.648,2.3588 0.824,1.0291 -2.4255,0.2779 0.3988,3.6262 2.685,-0.311 -0.4953,1.2579 3.2088,1.4 1.2401,-3.1299 6.7863,-0.7705 -3.2896,7.0574 -5.9656,1.5243 0.8566,3.5375 3.4641,-0.9 -1.8655,4.7721 3.2088,1.4 2.0969,-5.2917 1.9238,3.1566 2.9286,-1.9657 -3.2578,-5.285 2.6568,-5.4755 2.2434,3.8819 -1.5886,2.408 2.8764,2.055 0.668,-1.0348 0.7729,1.3418 2.997,-1.8823 -0.5933,-1.0583 0.764,0.025 0.066,-3.6547 -2.9656,-0.083 -3.5736,-6.2254 2.1367,-5.45 0.5572,1.0015 3.0365,-1.7955 -1.9016,-3.4657 2.1873,-5.5177 3.2551,4.5195 -1.5798,3.9698 3.2088,1.4 0.817,-2.0037 3.2911,4.5761 -3.257,7.86 -3.6008,0.7334 0.6547,3.5633 1.2867,-0.2558 -1.0048,2.3952 3.2124,1.4301 1.07,-2.5872 0.7986,1.0628 2.7523,-2.2188 -1.9567,-2.6928 2.4616,-5.9203 6.3701,8.8422 -1.4483,5.3319 3.3678,1.0119 0.735,-2.698 2.1366,2.9765 2.7811,-2.2227 -3.0826,-4.2963 4.3928,-0.2214 -0.1682,-3.6557 -6.5695,0.3757 c -0.058,0 -0.1153,0.015 -0.173,0.022 l -5.3162,-7.3522 4.9944,-0.083 1.1928,2.6674 3.1479,-1.5952 -0.5138,-1.1297 1.4594,-0.032 -0.049,-3.6398 -1.1964,0.029 0.4118,-0.7265 -3.0028,-1.8857 -1.5278,2.6761 -7.506,0.127 -3.3595,-4.6594 1.582,0.014 0.01,-3.6473 -4.2484,-0.042 -3.151,-4.3795 5.118,-0.7732 2.7805,3.7217 2.7524,-2.219 -1.5684,-2.1294 5.3774,-0.8061 5.2803,7.2953 -1.1795,3.6431 3.2992,1.1739 0.4017,-1.3073 1.5036,2.0763 2.7847,-2.1926 -1.644,-2.273 1.2651,-0.1912 -0.4852,-3.6152 -3.1934,0.4667 -4.0933,-5.6692 7.431,-1.6309 4.3146,4.5686 2.479,-2.5519 -2.5117,-2.6836 4.8585,-0.7402 -0.5142,-3.6116 -5.3772,0.8062 1.5969,-3.3285 -3.1472,-1.6222 -2.6449,5.6066 -5.9065,1.4065 2.0772,-3.9715 2.8032,0.1951 0.2138,-3.6427 -1.2107,-0.091 0.7189,-1.3477 -3.0751,-1.754 -0.5743,1.0842 -0.3774,-0.718 -3.0365,1.7955 1.4884,2.691 -3.3092,6.4263 -5.5756,0.8621 0.5526,-1.0202 -3.0244,-1.8216 -1.9,3.4894 -5.9793,0.9134 2.859,-6.7676 4.4798,-0.4776 -0.3412,-3.6335 -2.5155,0.2585 2.1977,-5.1819 8.6887,-0.7675 2.3095,2.9543 2.7127,-2.3059 -0.795,-1.0327 2.4326,-0.2173 -0.3124,-3.6374 -2.721,0.2541 0.5277,-1.2315 -3.1653,-1.5273 -1.3013,3.1069 -6.7788,0.586 2.9774,-6.7944 5.8651,-1.1526 -0.3695,-2.8879 -4.3576,1.087 2.2274,-5.1248 -2.5725,-1.3394 0,0 0,0 0,0 z" inkscape:connector-curvature="0" style="fill:#FFDB6E;fill-rule:evenodd"/>
    <path style="fill:#FFDB6E" inkscape:connector-curvature="0" d="m 1776.1085,-123.60983 c -1.859,0.097 -13.8249,-1.71212 -15.583,-2.35549 -1.1248,-0.42959 -5.3715,-2.49939 -5.5435,1.22268 -0.8919,19.2962 -1.9402,35.395026 4.9975,55.710366 0.6208,1.94828 0.2272,1.41369 1.5724,4.74029 0.4128,1.02104 0.6967,3.17821 7.6221,2.72907 29.1099,0.87426 38.1469,2.78271 59.833,4.92286 14.0005,4.66281 13.8268,-22.96776 17.9474,-32.24327 0.6772,-0.89469 9.233,-20.155696 7.0172,-28.583766 -0.273,-1.03857 0,-2.06618 -2.375,-2.5604 -6.5819,-1.28792 -9.5093,-1.03415 -18.4493,-0.65404 -2.7391,-51.20436 -53.8349,-42.20526 -57.0414,-2.92826 z m 51.9815,2.95011 c -10.4839,-0.76909 -32.5952,-1.12125 -47.0731,-2.3682 0,-42.24752 52.963,-36.77372 47.0731,2.3682 z" id="path3822"/>
    <path id="path6183" d="m 2160.0563,148.42857 43.8037,-29.66205 c 0,0 -12.3556,-6.18534 -12.2725,-7.20785 0.083,-1.0225 40.2611,-23.99295 38.5007,-24.49501 -1.7588,-0.50194 -18.0169,-6.0684 -16.4311,-6.60221 1.5859,-0.53383 46.3992,-28.49538 46.3992,-28.49538 l -68.2205,-3.5375 -30.847,39.19294 c 0,0 29.71,6.43411 28.3468,7.39025 -1.3631,0.95611 -28.2311,22.18767 -28.2311,22.18767 0,0 17.9849,5.82611 17.1504,6.60413 -0.8345,0.77816 -18.1975,24.6242 -18.1975,24.6242 z" inkscape:connector-curvature="0" style="fill:#FFDB6E"/>
    <path style="fill:#FFDB6E" inkscape:connector-curvature="0" d="m 1640.7589,760.1179 c -4.6718,-5.6018 -10.0811,-13.383 -10.0711,-14.4869 0.01,-0.7986 0.6532,-1.4189 4.2224,-4.0552 4.6161,-3.4095 18.4366,-14.6127 24.6257,-19.9624 l 3.9149,-3.3837 5.1644,-3.5931 5.189,-6.2951 -5.8678,5.7644 -5.103,2.8235 -2.5765,-2.3003 c -3.7596,-3.3567 -5.7722,-8.4473 -5.9606,-11.4836 -0.084,-1.3613 -0.036,-1.4152 2.645,-2.9787 2.2282,-1.2992 20.736,-10.1648 27.2743,-13.0652 1.3376,-0.5933 1.9424,-0.5424 3.1515,0.2654 2.9296,1.9572 15.4717,7.4111 16.8439,7.3243 2.2011,-0.1391 4.7873,1.5392 10.0981,6.5531 5.5314,5.2222 8.1964,8.7482 8.433,11.1575 0.2043,2.081 1.1899,4.7077 4.648,12.3882 1.5972,3.5473 3.0666,6.9465 3.2654,7.554 0.2841,0.8679 -1.2436,4.3827 -7.1272,16.3976 -8.6357,17.6347 -7.4443,16.4253 -13.6221,13.8303 -3.0677,-1.2884 -4.3347,-2.1302 -7.2573,-4.8216 l -2.8983,-2.6144 5.0814,-5.9461 5.6975,-6.0634 -6.6008,5.52 -4.8204,5.8432 -3.4566,3.8498 c -6.2717,6.9852 -14.5296,16.7233 -19.158,22.592 -3.7497,4.7549 -4.7162,5.7769 -5.4568,5.7707 -1.1605,-0.01 -8.6413,-5.4941 -14.9608,-10.9677 -5.5927,-4.844 -10.5317,-9.8801 -15.3164,-15.6172 z m 72.9003,-48.2927 c 3.7124,1.2563 7.0776,0.6544 6.3021,-1.1272 -1.2427,-2.856 -11.5041,-12.6711 -13.264,-12.6871 -1.4097,-0.013 -1.0657,5.1521 0.562,8.4376 0.8523,1.7204 4.3981,4.6994 6.3997,5.3768 z" id="path2985" inkscape:transform-center-x="-1.0309299" inkscape:transform-center-y="-31.608187"/>
    <path id="path5663" style="color:#FFDB6E;fill:#FFDB6E;fill-opacity:1;fill-rule:evenodd" d="m 1419.6798,-122.77683 c -8.7869,11.9046 -17.9853,15.112 -19.9991,26.410805 -1.503,8.4227 4.4578,16.4704 12.9426,17.8868 8.4849,1.4164 16.4586,-4.3032 17.8049,-12.7539 1.3461,-8.4502 -5.6265,-17.755305 -10.7484,-31.543705 z m 17.4945,26.854005 c -4.161,5.6375 -8.516,7.1684 -9.4698,12.5191 -0.7116,3.9885 2.109,7.7941 6.1271,8.4649 4.018,0.6708 7.7809,-2.0351 8.4184,-6.0367 0.6375,-4.0016 -2.6501,-8.4174 -5.0757,-14.9473 z m -54.185,-78.913895 c -17.6666,23.93534 -36.1419,30.38027 -40.1914,53.09579 -3.0218,16.9344 8.9476,33.099005 26.007,35.946805 17.0594,2.8478 33.109,-8.636 35.8156,-25.626305 2.7065,-16.9903 -11.3317,-35.69387 -21.6312,-63.41629 z" inkscape:connector-curvature="0" sodipodi:nodetypes="ccsscccsccccssc"/>
    <path id="path4028" style="fill:#FFDB6E;fill-opacity:1" d="m 1530.6466,492.02077 c 4.5375,-16.12168 -9.9796,-29.02736 -23.6519,-33.87706 0,0 -7.6123,-4.94055 -6.5343,-7.03214 -6.1414,-1.96734 5.4793,13.38801 10.3557,16.97549 7.6913,5.29988 18.5526,9.97385 19.3714,20.63986 l 0.1444,1.65732 0.3159,1.63799 z m -2.638,-40.53051 c -0.6446,3.06917 -0.9187,6.25121 -0.4736,9.39527 -3.2791,-0.8526 -6.8481,-1.30157 -9.9307,-2.54457 0.1097,-2.10516 0.093,-4.30331 0.444,-6.39131 3.2584,-0.62986 6.7016,-0.59215 10.0399,-0.85441 l -0.074,0.36749 -0,0.0277 z m 11.7646,12.45442 c -1.177,-0.2918 -2.893,0.11356 -3.8157,-0.55768 -0.8448,-4.47056 -0.7559,-9.26458 0.8433,-13.49337 1.002,-0.72789 2.8689,0.13463 4.1086,-0.0916 1.2782,0.35026 -0.1196,3.03448 0.2336,4.29833 -0.1567,3.30494 -0.426,6.6072 -0.3862,9.92107 l -0.9837,-0.0769 z m 89.0172,0.85622 c -0.1595,1.18461 -0.4555,3.27338 -1.0383,3.84512 -0.6026,-3.16349 -0.4864,-6.72441 0.5914,-9.62209 0.5944,1.86382 0.6018,3.87859 0.4469,5.77682 z m -8.3665,-8.79235 c -1.5936,4.46937 -1.8725,9.44593 -0.9131,14.14814 -23.285,-1.91916 -46.6308,-3.42726 -69.8741,-5.6604 -1.3586,-0.17833 -0.3241,-2.40436 -0.6026,-3.36014 0.2516,-3.40194 0.095,-6.96888 0.8399,-10.23966 4.1649,-0.24248 8.6915,0.50802 12.993,0.67342 19.1819,1.41276 38.4271,2.81525 57.56,4.43879 z m -107.4584,-4.25395 -11.3808,-0.88936 c -3.139,-0.23973 5.1426,6.5911 6.1153,6.65528 l 4.9401,0.38607 z m 18.2427,13.05667 c -0.045,-0.006 -0.093,-0.0135 -0.1382,-0.0235 l -14.0639,-3.14654 c -1.453,-0.325 -2.5886,-1.65469 -2.4936,-3.45057 l 0.3404,-6.43408 c 0.095,-1.79587 1.3614,-2.93781 2.8367,-3.03411 l 14.2796,-0.93169 c 0.046,-0.003 0.094,-0.002 0.1394,-0.002 -0.403,0.6022 -0.4921,1.38852 -0.6996,2.1964 -1.0566,4.11404 -1.5249,8.27455 -0.6635,12.53883 0.1679,0.83069 0.1232,1.62552 0.4625,2.28722 z m -3.1309,-13.69985 c -3.3384,0.26225 -6.7813,0.2263 -10.0396,0.85604 -0.3506,2.08796 -0.3422,4.28196 -0.4521,6.38708 3.0827,1.24294 6.6568,1.69162 9.9357,2.5442 -0.4451,-3.14446 -0.1733,-6.31786 0.4712,-9.387 l 10e-4,-0.0257 0.083,-0.37507 z m 18.4934,16.52814 -10.9762,-0.85767 c -1.7636,-0.1378 -2.6552,-1.98122 -2.9787,-4.11167 -0.6449,-4.24703 -0.226,-8.41137 0.6633,-12.53906 0.45,-2.08773 1.6239,-3.7519 3.3875,-3.61402 l 10.9763,0.85767 c -1.7637,-0.13795 -3.2741,1.47295 -3.3875,3.61417 l -0.6626,12.52602 c -0.1133,2.14129 1.2143,3.98648 2.9779,4.12429 z m -5.8226,-3.63414 c -0.04,-3.31407 0.2289,-6.62307 0.3856,-9.92811 -0.3531,-1.26366 1.0488,-3.94076 -0.2294,-4.29102 -1.2399,0.22624 -3.1121,-0.64257 -4.1139,0.0855 -1.5992,4.22831 -1.6855,9.02052 -0.8407,13.49116 0.9264,0.6719 2.6399,0.27388 3.8177,0.56577 l 0.9852,0.0769 z m 91.2389,0.13444 c -0.2664,5.03626 -2.2328,8.98242 -4.3853,8.81427 -2.1526,-0.16832 -3.6741,-4.38724 -3.408,-9.42328 0.2665,-5.03604 2.2203,-8.98322 4.3728,-8.81505 2.1526,0.16823 3.6865,4.38823 3.4205,9.42406 z m -3.1565,-0.0304 c 0.094,-1.68288 0.027,-3.43115 -0.4931,-5.06209 -1.0778,2.89746 -1.2002,6.45522 -0.5977,9.61876 0.5828,-0.57174 0.8812,-2.66393 1.0407,-3.84845 0.019,-0.23732 0.037,-0.46788 0.05,-0.70824 z m -2.4735,-10.54387 c -2.233,0.28963 -4.1951,4.49854 -4.4749,9.78637 -0.2792,5.27771 1.2175,9.74075 3.395,10.38873 -0.1534,0.0152 -0.3115,0.0264 -0.4701,0.014 l -75.9234,-5.93271 c -1.7636,-0.13788 -3.0913,-1.98313 -2.9779,-4.12429 l 0.6627,-12.52601 c 0.1132,-2.1413 1.6238,-3.75205 3.3873,-3.61426 l 75.9234,5.93271 c 0.1628,0.0128 0.3234,0.035 0.478,0.0755 z m -5.9292,2.44736 c -19.1317,-1.62349 -38.3806,-3.03436 -57.5637,-4.44725 -4.3014,-0.16541 -8.8254,-0.91416 -12.9901,-0.67159 -0.7452,3.27053 -0.5943,6.83331 -0.8459,10.23512 0.2822,0.95644 -0.7491,3.18913 0.6092,3.36723 23.2473,2.2332 46.5938,3.74463 69.878,5.66378 -0.9607,-4.7023 -0.6812,-9.67763 0.9109,-14.14751 z" inkscape:connector-curvature="0"/>
    <g id="g3951" transform="translate(3.3991704,-2.5780299)">
      <path style="fill:#FFDB6E;fill-rule:evenodd" inkscape:connector-curvature="0" d="m 183.44955,113.39694 c -3.2419,0.12344 -7.6183,1.91837 -11.0514,9.28324 -11.1166,-9.83126 -19.9614,1.65473 -19.9891,1.70862 -4.7023,9.13861 4.3115,22.48497 17.7589,31.60805 -16.2722,-5.33881 -30.89786,-3.77581 -35.03516,5.914 -0.1918,0.44887 -4.1653,9.71374 9.35466,14.97212 -9.19486,11.62824 2.8714,19.70034 2.9272,19.72469 9.2053,3.99585 21.616,-5.12947 29.9634,-18.4205 -5.5585,15.8102 -4.2687,30.11275 5.2593,34.42252 0.4471,0.20219 9.6525,4.38481 15.2874,-8.91399 11.4585,9.43548 19.883,-2.34215 19.9088,-2.39702 4.3938,-9.33779 -5.1885,-22.45124 -19.0476,-31.09557 15.9225,5.73139 30.406,4.62208 34.8403,-4.8432 0.2073,-0.44257 4.4902,-9.55765 -8.8393,-15.27529 9.5929,-11.30611 -2.1794,-19.79435 -2.2343,-19.8205 -8.6921,-4.13361 -20.7566,3.69391 -29.4952,15.81106 4.957,-14.4879 3.736,-27.40536 -5.0666,-31.76484 -0.1923,-0.0953 -2.0205,-1.00957 -4.5419,-0.91355 z" id="path14007"/>
      <path inkscape:connector-curvature="0" d="m 926.01667,199.94824 -31.8853,3.8217 c 0,0 6.9899,-10.2006 16.5672,-29.12715 -1.2153,8.41705 2.7136,12.65585 2.7136,12.65585 34.2071,-8.33078 23.9266,-53.92889 -11.6036,-31.93056 4.8555,-5.2026 7.5219,-8.13684 7.5219,-8.13684 0,0 2.1255,0.72474 -7.8353,-2.88408 50.2405,-14.96143 52.8607,42.8032 16.6462,51.07348 l 7.8761,4.5277 z m -83.3737,-11.09586 4.7883,-22.81108 16.1302,20.8964 c 0,0 -6.6743,-4.05997 -9.55,-3.99263 -1.0966,7.24277 0.5598,12.69637 0.5914,19.85717 9.8907,-3.8701 18.9112,-4.9388 32.7292,-14.2624 -5.7076,7.5045 -8.9754,10.7947 -8.9754,10.7947 0,0 7.736,3.3583 11.4423,4.4253 -12.4879,0.1837 -28.1228,3.5517 -42.2543,6.8065 1.2453,-10.1239 0.3514,-14.6526 1.296,-26.39213 l -6.1976,4.67728 z m 54.6461,-69.8622 6.1106,-4.93515 c 1.1604,13.72 0.8754,17.86666 0,27.23438 l -23.6333,-11.72865 c 9.3357,-2.67075 15.579,-1.98877 15.579,-1.98877 -2.514,-11.68331 -43.8223,-21.34382 -38.456,34.96899 -2.3693,-3.02916 -4.529,-5.81187 -5.5434,-7.46163 -1.8519,2.44307 -2.2576,4.17666 -4.7599,7.86432 -3.6819,-72.030713 48.2325,-51.17756 50.6977,-43.95351 z" style="fill:#FFDB6E" id="path2909-1"/>
      <path inkscape:connector-curvature="0" d="m 74.533462,627.77643 c -0.012,0.86231 -0.4254,7.96962 -10.6306,14.56051 -5.0275,4.15906 -20.9153,16.8865 -13.9637,25.86418 -0.8839,1.3852 -1.8892,2.78974 -2.8637,8.29044 -0.6301,-4.51529 -2.2346,-5.95549 -2.7669,-6.88956 4.7758,-8.74993 -0.5631,-13.38298 -5.0436,-19.33725 -5.6056,-5.44695 -4.1001,-11.38552 -4.1001,-11.38552 0,0 -7.4942,26.54649 3.0384,31.86214 10.5326,5.31565 3.7285,0.86379 5.6943,-0.4821 2.9028,5.10373 2.6543,9.68503 2.6543,9.68503 l 1.0845,0.0247 c -0.3694,-3.12242 2.8864,-10.70925 2.8864,-10.70925 2.6474,1.71449 7.7094,-0.64463 7.7094,-0.64463 18.4239,-6.7984 16.3627,-39.91051 16.3012,-40.83959 z m 11.0684,-27.36127 -4.0103,-1.12248 -3.0492,12.9291 -10.6247,-12.74374 -1.6819,7.20684 34.140798,40.61291 c 2.1103,0.63727 4.4001,0.77547 4.2501,-3.81536 l -22.746698,-27.2648 3.7224,-15.80002 z m -18.8904,-1.36719 -53.2635,18.45789 c -2.2814,3.51268 -0.06,5.07603 1.7448,5.52989 l 49.6729,-16.65664 1.8469,-7.33162 z m -38.125,21.33523 -6.1129,2.54461 -13.7424996,51.26126 4.8779996,1.39509 14.9778,-55.20249 z m 61.5879,17.61383 -14.6459,55.2974 4.878,1.39508 13.7425,-51.26126 -3.9749,-5.42971 z M 5.6982624,674.35578 c -0.9151,0.6731 -1.4723,1.4486 -0.6983,2.60478 l 77.2282996,22.08692 c 0.749,-0.50981 1.4613,-1.04511 0.6983,-2.60478 L 5.6982624,674.35578 Z" style="fill:#FFDB6E" id="path5464-5"/>
      <path style="fill:#FFDB6E" inkscape:connector-curvature="0" d="m 362.05917,979.60892 c -0.8083,0.77683 -0.2375,2.40313 0.1239,3.20766 0.4447,0.99021 2.3906,2.88051 4.1924,2.0046 l 3.3007,1.91289 1.0945,2.07594 8.2608,18.69929 c -3.6341,0.5009 -7.1738,1.9731 -10.1979,4.4569 -8.6308,7.0887 -9.785,19.7222 -2.5775,28.2105 7.2076,8.4883 20.047,9.6163 28.6775,2.5277 8.6309,-7.0887 9.7837,-19.7092 2.5763,-28.1974 -3.6249,-4.269 -8.6713,-6.6799 -13.8931,-7.1198 l -1.5964,-3.6111 27.014,-2.5216 c 0.3107,1.1774 0.8858,2.3022 1.731,3.2977 3.0564,3.5994 8.5019,4.0807 12.1617,1.0747 0.4575,-0.3757 0.8672,-0.7919 1.2247,-1.2329 l 1.4392,0.4787 -0.3937,0.3233 2.9705,3.4983 1.9755,-1.6224 c 1.1994,0.9294 3.3546,-0.8469 2.9055,-2.3864 l 1.6461,-1.352 -2.8628,-3.37164 -2.5694,2.11024 -3.3101,-1.8095 c 0.2457,-1.76854 -0.074,-3.60995 -0.9844,-5.23687 l 2.2053,-1.82346 c 7.3934,6.89653 19.0282,7.39463 27.0402,0.81416 8.6307,-7.08868 9.7837,-19.70926 2.5762,-28.1974 -7.2077,-8.48831 -20.0458,-9.62936 -28.6764,-2.54081 -2.087,1.71406 -3.7289,3.75824 -4.9291,5.98387 l -13.299,-5.43316 -1.6091,0.22241 -0.7755,-2.88762 c 7.0438,-7.0913 3.1879,-9.95345 0.5992,-13.80159 l -16.4179,13.48444 c -4.1416,3.04708 -0.7189,6.86032 2.5093,6.51747 l 9.2134,-4.04272 1.158,3.33812 -28.5065,22.9831 -1.7935,-3.70026 c -0.1718,-0.35419 -0.6081,-1.4467 -1.6193,-2.56243 -1.0112,-1.1159 -2.6792,-2.07574 -2.4784,-2.36365 0.362,-0.51956 4.2594,-3.58206 4.2594,-3.58206 l -3.5847,-4.09302 -7.9854,5.88958 c -0.3531,0.0683 -0.6093,0.19963 -0.7958,0.37896 z m 15.9161,14.39509 27.993,-22.65697 6.9652,20.49235 c -0.371,0.22081 -0.7317,0.4696 -1.0749,0.75139 -0.3878,0.31852 -0.7381,0.6667 -1.0542,1.03318 l -2.5374,-1.42877 1.0155,-0.46367 -2.9165,-3.43485 -2.6337,2.16306 c -1.3996,-0.56547 -2.8686,0.80137 -2.5178,2.17086 l -1.4529,1.19326 2.809,3.30812 2.0935,-1.61184 2.9792,1.51985 -27.4998,2.55028 z m 32.0893,-25.47175 11.4897,4.73281 c -1.5677,5.5427 -0.6919,11.6676 2.7862,16.67243 l -2.3905,1.9634 c -1.5083,-0.9221 -3.257,-1.35973 -4.994,-1.27458 z m -37.5743,47.74264 c 2.6106,-2.1441 5.7567,-3.2396 8.911,-3.3403 l 1.5474,4.7267 c 0.028,1.7903 -0.06,2.9258 -0.5553,4.0862 -1.1601,2.7143 -2.3055,1.6067 -2.9767,2.5527 -2.3233,3.2746 1.6995,4.749 3.5691,3.6771 3.3221,-2.1801 3.5898,-4.3463 4.1242,-8.0397 0.2219,-1.6108 0.1715,-3.502 -0.689,-6.2276 l -0.018,-0.045 -0.018,-0.045 c 2.5509,0.8063 4.9088,2.3046 6.7536,4.4771 5.1892,6.1115 4.3589,15.2015 -1.8552,20.3055 -6.214,5.1036 -15.4635,4.2928 -20.653,-1.8188 -5.1894,-6.1115 -4.3518,-15.2075 1.8622,-20.3112 z m 59.2805,-48.68889 c 6.2141,-5.10375 15.4565,-4.28709 20.6461,1.82452 5.1894,6.11141 4.359,15.20152 -1.8552,20.30535 -5.5963,4.59653 -13.6544,4.40137 -18.9916,-0.14841 l 10.1541,-8.39966 c 2.2838,-1.44352 1.9026,-3.0339 -0.1791,-4.70347 l -13.0182,-5.10246 c 0.8318,-1.39342 1.9112,-2.68093 3.2444,-3.77589 z m -4.8957,7.86834 10.0541,4.14375 -8.1803,6.7187 c -2.1149,-3.30899 -2.7156,-7.22522 -1.8738,-10.86245 z" id="path3775-7"/>
      <path inkscape:connector-curvature="0" d="m 717.29458,1036.6518 c -5.1185,5.4629 -13.434,5.9839 -18.5732,1.1626 -5.139,-4.8208 -5.1559,-13.158 -0.037,-18.6214 5.1185,-5.463 13.4342,-5.9839 18.5734,-1.1626 5.1389,4.8208 5.1557,13.158 0.037,18.6214 z m -62.9026,-59.2555 c -5.1184,5.4629 -13.434,5.984 -18.5731,1.1626 -5.1391,-4.8208 -5.156,-13.1579 -0.037,-18.6214 5.1184,-5.4629 13.4341,-5.9838 18.5732,-1.1626 5.139,4.8207 5.1557,13.1581 0.037,18.6214 z m 50.2293,-21.139 c -14.1944,-13.0246 -34.8934,-19.2962 -49.499,-8.3304 -7.1197,-2.66 -15.6211,-0.6897 -21.4194,5.4989 -3.0108,3.991 0.9013,4.5679 2.0999,6.485 5.1199,-5.4422 13.4234,-5.9482 18.5553,-1.1338 5.1388,4.821 5.1566,13.1557 0.038,18.6189 -0.9797,1.0454 -2.0812,1.9057 -3.2503,2.5863 0.2585,-0.1123 0.5188,-0.2262 0.7721,-0.3547 12.879,12.2322 21.9877,20.7817 44.7848,42.2444 0.542,-0.9451 1.1962,-1.8467 1.9775,-2.6805 5.1184,-5.463 13.4374,-5.9772 18.5763,-1.1562 5.1387,4.8211 5.1565,13.1557 0.038,18.6189 -0.5297,0.565 -1.0885,1.0766 -1.6794,1.5356 0.8681,-0.5302 1.6906,-1.1634 2.4566,-1.8958 -0.4454,0.5022 -0.9176,1.0087 -1.4315,1.5062 l 0.5424,0.7393 c 2.1672,-1.104 7.9194,-3.4436 10.7886,-6.9113 2.8692,-3.4678 3.3774,-8.2142 2.2288,-12.4906 -2.1466,-6.4151 -6.1921,-11.6115 -10.2828,-16.8134 -1.1811,-1.7248 -1.5536,-2.2284 -1.5762,-3.04065 6.2718,-14.78175 -1.1926,-31.53545 -13.7192,-43.02565 z m -13.8413,4.6116 c 4.2124,3.9521 6.7002,6.2857 9.4046,8.8228 2.6357,3.9684 2.7002,7.4915 1.8427,9.8994 l 7.5495,7.4282 c 0.8146,0.7642 1.104,1.7715 0.6509,2.2551 l -7.7306,8.25085 c -0.4535,0.4831 -1.4763,0.2597 -2.2909,-0.5045 l -7.8891,-7.06575 c -2.346,1.0114 -5.8689,1.1797 -9.9965,-1.197 -2.7045,-2.5368 -5.192,-4.8707 -9.4046,-8.8227 l 2.4447,-2.609 -7.9393,-7.4481 c -0.8147,-0.7642 -1.1039,-1.7715 -0.6508,-2.2552 0.4536,-0.483 1.471,-0.254 2.2857,0.5103 l 7.9392,7.4481 9.705,-10.3583 -7.9392,-7.4481 c -0.8148,-0.7642 -1.1091,-1.766 -0.656,-2.2496 0.4534,-0.4831 1.4762,-0.2596 2.2909,0.5046 l 7.9392,7.4481 2.4447,-2.6091 z" style="fill:#FFDB6E;stroke:#FFDB6E;stroke-width:1.18590677" id="path3766"/>
      <path style="fill:#FFDB6E;fill-opacity:1" inkscape:connector-curvature="0" d="m 1022.0445,335.12832 c -27.58648,-1.74873 -51.47086,17.55306 -53.35766,43.11603 -1.8871,25.56492 18.941,47.69906 46.52546,49.44764 3.2142,0.20365 6.3568,0.1164 9.4395,-0.23084 l 0.8927,7.55713 11.3439,-7.57308 11.225,-7.70623 -12.7414,-5.26796 -12.7875,-5.1953 0.9714,8.78716 c -2.4866,0.28577 -5.0509,0.352 -7.6468,0.18744 -21.96198,-1.39218 -38.54436,-19.00918 -37.04216,-39.36027 1.5023,-20.35273 20.51908,-35.71951 42.48126,-34.32732 22.7034,3.48661 36.9972,18.19566 35.6029,32.91273 -0.9731,10.7957 -5.9159,17.22487 -18.2439,16.89428 l 2.53,-34.27869 -9.3177,-0.59066 -0.4347,5.89013 c -2.3702,-4.65698 -9.4047,-7.48962 -14.1186,-7.82403 -6.3108,-0.4 -11.6212,1.38832 -15.9224,5.41091 -4.30148,4.02235 -6.73198,9.46756 -7.23658,16.30771 -0.5051,6.84011 1.1398,12.54363 4.773,17.069 3.67248,4.49346 8.63878,6.86733 14.98638,7.26971 4.8729,0.24455 13.0328,-2.10674 14.8919,-5.3128 l -0.2844,6.51519 c 28.5753,2.66371 38.6554,-11.76388 39.9218,-26.30594 1.5586,-24.17259 -22.403,-41.94012 -46.4516,-43.39423 z m -3.4161,32.04747 c 3.3212,0.21075 5.8275,1.59847 7.6043,4.15071 1.8161,2.52034 2.6283,5.90295 2.3228,10.04132 -0.3085,4.17256 -1.5447,7.41648 -3.6822,9.75497 -2.1353,2.30424 -4.8585,3.35443 -8.143,3.14622 -3.3215,-0.21035 -5.8281,-1.59217 -7.6049,-4.14449 -1.7399,-2.54989 -2.532,-5.92241 -2.2215,-10.12921 0.306,-4.13814 1.5864,-7.3881 3.6823,-9.66066 2.1351,-2.30425 4.7945,-3.36473 8.0422,-3.15886 z" id="path5587-2"/>
      <path style="fill:#FFDB6E;fill-opacity:0.87860999" inkscape:connector-curvature="0" d="m 923.77116,829.63047 c -3.7921,-3.7213 -4.7154,3.6891 -8.434,12.3311 -11.382,-8.5195 -24.552,-11.6132 -34.6246,-8.4829 4.4899,-11.3779 1.4999,-25.79891 -2.9146,-30.13094 -5.5766,-5.47247 -4.9479,13.1222 -16.1337,24.31974 -11.1852,11.1971 -29.9488,10.7566 -24.3723,16.2292 4.3205,4.2397 18.1631,7.2467 29.3819,3.1807 -3.8158,11.2909 0.6406,26.6539 12.0868,38.8659 -8.7561,3.6872 -16.244,1.4742 -11.9895,5.6492 4.6507,4.5637 17.6893,10.9756 28.3785,6.4861 8.4658,4.0553 17.2077,5.2969 24.5031,3.4434 -0.3321,-0.1 -0.6502,-0.2255 -1.0997,-0.3027 -0.7898,-0.2071 -1.1941,-0.5515 -1.9438,-0.8811 -0.9532,-0.5708 -1.6041,-1.3097 -2.4174,-2.0519 -1.2352,-1.8088 -1.3375,-2.0391 -1.9227,-3.1303 -0.4635,-0.9486 -0.765,-1.6747 -0.9494,-2.2839 -0.1671,-0.7474 -0.3816,-0.8774 0.2117,-0.3679 0.5124,0.4927 1.3636,2.25 1.9558,2.685 1.2018,1.7104 1.4114,1.8648 2.6564,3.0198 0.4744,0.3666 1.6255,1.1862 2.1419,1.4776 0.7199,0.3234 1.4948,0.4501 2.243,0.5665 0.6755,-0.04 0.999,0.216 1.6337,-0.026 0.54,-0.1058 0.8512,-0.4322 1.4344,-0.1129 0,0.013 -0.01,0.026 -0.015,0.04 2.3329,-1.0532 4.4522,-2.4851 6.2813,-4.3161 9.3834,-9.3934 8.2082,-26.2075 -1.7832,-40.668 2.2895,-10.3855 -0.4745,-21.7738 -4.3102,-25.5379 z m 0.3993,45.5711 c 1.971,1.9341 1.9044,5.171 -0.1525,7.2301 -2.0569,2.059 -5.3245,2.1599 -7.2954,0.2258 -1.9709,-1.9341 -1.899,-5.1713 0.1577,-7.2302 2.0569,-2.059 5.3193,-2.1598 7.2902,-0.2257 z" id="path3581"/>
      <path id="path3353-7" transform="translate(0,-27.63784)" d="M 595.7793,36.873047 473.31836,38.5 451.51367,128.82031 c -16.0811,3.46645 -32.18636,7.64579 -47.97656,13.08203 l -66.74023,-65.333981 -105.5918,62.542971 25.2168,89.92773 c -11.81961,10.7775 -22.96974,22.47019 -33.33594,34.34961 l -90.875,-22.84765 -60.283206,106.61132 67.876956,65.90039 c -4.786,15.10294 -8.67679,30.47915 -11.74219,46.02344 l -91.197266,25.31836 1.371094,123.03711 90.853512,22.93555 c 3.3316,15.1839 8.26427,30.18587 13.35157,45.10937 l -65.912113,67.88477 62.466793,105.4707 90.65625,-24.99609 c 10.7339,11.7714 21.86156,22.87913 33.68946,33.20703 l -23.36133,91.02344 107.04101,60.00779 65.83008,-67.03318 c 15.0583,4.7802 30.47271,8.69792 45.97071,11.76562 l 25.2832,90.32036 122.82812,-1.0391 23.3086,-91.21876 c 15.5702,-3.4193 31.34462,-7.611 46.64062,-12.875 l 0.48438,-0.28906 65.82812,65.88472 105.58985,-62.53902 0.01,0.004 -26.13476,-89.38281 c 12.5215,-11.3298 24.05899,-23.48537 34.96289,-36.04297 l 90.42383,24.43164 59.92968,-107.20899 -67.43554,-64.04297 c 5.0596,-15.7777 9.19324,-32.03117 12.36914,-48.29297 l 90.2246,-24.74414 -1.1758,-122.70898 -90.93357,-22.08594 c -3.4865,-16.08 -7.58712,-32.13017 -13.04101,-47.91601 l 65.49218,-66.25 -62.46679,-105.47071 -89.35547,25.95899 C 840.3841,244.87435 828.16079,233.27375 815.67969,222.45117 L 840.20898,132.41992 732.97656,72.085938 668.17578,139.75 c -15.6801,-4.9964 -31.61829,-9.45485 -47.77539,-12.59766 L 595.7793,36.873047 Z m -55.5,201.195313 c 1.67892,-0.009 3.35771,-0.005 5.03515,0.0137 102.4767,1.1395 201.87432,54.18319 257.92969,148.83008 85.4141,144.217 37.79433,330.32682 -106.44726,415.76172 l -0.004,-0.008 C 623.89878,845.83766 540.4836,854.8374 464.621,834.73422 L 451.63281,765.6875 c 67.3965,27.149 146.26231,23.63713 213.62891,-16.26367 114.8271,-68.0133 152.7862,-216.18378 84.7832,-331.00391 -67.9998,-114.81373 -216.17096,-152.7485 -331.00586,-84.73242 -114.827,68.01355 -152.7868,216.18135 -84.7832,331.00195 8.0378,13.5699 17.17712,26.17275 27.26562,37.52735 l 44.04297,-37.48047 15.99805,83.11914 15.38281,83.19141 -80.10351,-27.47657 -79.83985,-28.50781 37.68946,-32.54883 c -12.4673,-14.103 -23.73686,-29.47294 -33.68946,-46.27734 -85.414,-144.2171 -37.7107,-330.3088 106.5293,-415.74219 48.03178,-28.44823 100.70151,-42.14042 152.74805,-42.42578 z M 940,465 a 75,75 0 0 1 75,75 75,75 0 0 1 -75,75 75,75 0 0 1 -75,-75 75,75 0 0 1 75,-75 z m -790,5 a 75,75 0 0 1 75,75 75,75 0 0 1 -75,75 75,75 0 0 1 -75,-75 75,75 0 0 1 75,-75 z m 788.95898,5.00781 a 64.999998,66.021274 0 0 0 -34.95117,11.03711 64.999998,66.021274 0 0 0 -18.13281,91.5332 64.999998,66.021274 0 0 0 15.24805,16.26563 28.888889,29.34279 0 0 1 12.80664,-26.4043 28.888889,29.34279 0 0 1 40.05078,8.18555 28.888889,29.34279 0 0 1 1.74219,29.375 64.999998,66.021274 0 0 0 20.26953,-9.00195 64.999998,66.021274 0 0 0 18.13281,-91.53321 64.999998,66.021274 0 0 0 -55.16602,-29.45703 z m -790,5 a 64.999998,66.021274 0 0 0 -34.95117,11.03711 64.999998,66.021274 0 0 0 -18.13281,91.5332 64.999998,66.021274 0 0 0 15.24805,16.26563 28.888889,29.34279 0 0 1 12.80664,-26.4043 28.888889,29.34279 0 0 1 40.05078,8.18555 28.888889,29.34279 0 0 1 1.74219,29.375 64.999998,66.021274 0 0 0 20.26953,-9.00195 64.999998,66.021274 0 0 0 18.13281,-91.53321 64.999998,66.021274 0 0 0 -55.16602,-29.45703 z m 353.5293,395.5 a 40.02981,46.469654 5.8747995 0 0 35.65625,37.14649 40.02981,46.469654 5.8747995 0 0 41.38281,-31.38672 40.02981,46.469654 5.8747995 0 1 0.39063,12.22656 40.02981,46.469654 5.8747995 0 1 -43.78516,43.23828 40.02981,46.469654 5.8747995 0 1 -36.04687,-49.37109 40.02981,46.469654 5.8747995 0 1 2.40234,-11.85352 z" style="fill:#FFDB6E" inkscape:connector-curvature="0"/>
      <path d="m 150.55784,902.9596 c -0.065,-0.69526 0.08,-1.42276 0.4733,-2.08094 l 7.5314,-12.58812 c -7.5777,-7.67766 -10.66736,-16.19021 -7.057,-22.23548 5.4338,-9.09893 23.9683,-9.15397 41.3816,-0.13743 17.4132,9.01647 27.1062,23.69508 21.672,32.79411 -3.6104,6.04554 -12.9878,8.10642 -23.99,6.1634 l -7.5307,12.59857 c -1.0482,1.75528 -3.3947,2.37262 -5.2796,1.39654 -1.8851,-0.97601 -2.5474,-3.16337 -1.4992,-4.91859 l 6.5771,-11.02751 c -3.1891,-1.04398 -6.4229,-2.38974 -9.6253,-4.04793 -3.202,-1.65794 -6.1569,-3.52246 -8.7917,-5.49391 l -6.5771,11.02751 c -1.0482,1.75522 -3.3946,2.37261 -5.2796,1.39647 -1.1795,-0.62015 -1.8985,-1.68526 -2.0061,-2.85123 z m 1.7217,-0.0665 c 0.059,0.62894 0.4533,1.2171 1.0904,1.54701 1.0194,0.52785 2.2929,0.194 2.8598,-0.75525 0.5669,-0.94924 0.2087,-2.13646 -0.8107,-2.66438 -1.0195,-0.52784 -2.293,-0.19401 -2.8599,0.75523 -0.2126,0.35597 -0.3149,0.74 -0.2796,1.11728 z m 1.4446,-30.18035 c 0.1663,3.90735 2.5316,8.40803 6.5412,12.73598 l 5.2797,-8.84055 c 1.0483,-1.75521 3.4247,-2.40399 5.3096,-1.42798 1.885,0.97597 2.5494,3.19307 1.5011,4.94821 l -6.2893,10.53498 c 2.6476,2.03561 5.6241,3.95279 8.9304,5.66497 3.1365,1.62402 6.3322,2.93834 9.4268,3.93986 l 6.3147,-10.62405 c 1.0482,-1.75522 3.4265,-2.37437 5.3115,-1.39831 1.885,0.97603 2.5474,3.16338 1.4992,4.91859 l -5.3658,8.9942 c 9.0699,1.44527 16.5697,-0.1938 19.4307,-4.98578 4.5631,-7.64876 -4.4258,-20.40056 -20.0851,-28.51117 -15.6602,-8.11059 -32.0555,-8.48129 -36.6182,-0.84208 -0.8759,1.46863 -1.2634,3.11006 -1.1877,4.88764 z m 2.8787,-12.87148 c 0.1226,-1.70192 0.6093,-3.32679 1.4817,-4.78733 1.5803,-2.64632 4.2456,-4.52275 7.6911,-5.6403 7.642,-11.64627 22.3394,-16.97873 35.8354,-13.79251 8.4357,-12.04788 19.0566,-19.35845 42.6274,-15.03507 4.0508,0.74305 6.2135,4.81021 5.6822,7.33502 -0.5764,2.73871 -3.7393,6.16524 -7.0218,6.10911 -6.3729,-0.11194 -11.062,-2.03012 -15.5737,-1.12832 -3.7867,0.7574 -7.9233,4.05176 -11.6,9.96452 10.1643,8.98918 13.1195,23.49762 6.4898,35.75909 0.7967,3.31292 0.5022,6.43735 -1.0772,9.08228 -0.8722,1.46054 -2.0784,2.68801 -3.5664,3.68292 0.6417,-8.90131 -8.7973,-20.03539 -23.4151,-27.60488 -14.618,-7.56849 -29.772,-9.15191 -37.5533,-3.94369 z m 4.6428,-4.3385 c 2.6337,-0.82587 8.328,-1.58132 9.6821,-1.52329 6.7465,0.37105 13.3133,2.22131 19.4529,4.77942 6.2714,2.70089 12.2503,6.10636 17.3572,10.46453 4.9749,3.94614 9.6609,9.49662 11.5212,17.6089 0.1185,-0.54544 0.2136,-4.1327 0.2096,-4.68644 0.1493,-1.61578 -0.7296,-3.225 -0.021,-4.79272 1.5956,-3.20961 2.7149,-6.64553 3.0523,-10.17513 0.1269,-2.78681 0.04,-5.62859 -0.6024,-8.3631 -1.288,-5.24043 -4.1471,-10.1351 -8.3691,-13.82497 -0.4494,-1.05808 -0.2955,-2.2902 -0.5083,-3.42557 0.3367,-0.85218 1.0226,-1.63903 1.537,-2.4382 2.6739,-3.57506 5.9984,-7.11919 10.5372,-8.5981 3.96,-1.39234 8.2045,-0.50809 12.2435,0.0309 -0.2484,-0.63308 -0.383,-1.27922 -0.4789,-1.9418 -0.4554,-2.08509 0.1979,-4.31494 1.6983,-5.90138 -3.1618,-0.37219 -6.3847,-0.58197 -9.5778,-0.32834 -4.0326,0.14704 -8.036,1.06334 -11.6119,2.82186 -5.3125,2.53678 -9.353,6.81764 -12.6622,11.33688 -0.6625,1.22135 -1.9905,2.04888 -3.4898,1.89208 -2.6426,-0.36833 -5.2587,-0.87298 -7.9446,-0.77711 -8.8032,0.0597 -17.3968,4.18503 -22.8099,10.59361 -1.1048,1.14095 -1.6508,2.77423 -3.0923,3.59696 -0.7749,0.1667 -3.8408,1.09889 -6.1255,3.64719 z m 16.2375,60.07394 c -0.088,0.76197 0.3187,1.53853 1.0833,1.93454 1.0194,0.52785 2.3249,0.19224 2.8918,-0.75701 0.5668,-0.94931 0.1748,-2.16444 -0.8446,-2.69223 -1.0194,-0.52784 -2.293,-0.19402 -2.8599,0.75524 -0.1417,0.23729 -0.2413,0.50552 -0.2707,0.75952 z m 62.3392,-88.13426 c 0.061,1.63426 0.9102,3.8424 2.3617,3.91761 1.8991,0.22448 4.3065,-1.01087 4.7561,-3.57078 0.4496,-2.55978 -1.3472,-4.24697 -3.0967,-4.41254 -2.1971,-0.2078 -3.6347,1.5972 -3.9993,3.40943 -0.025,0.20183 -0.03,0.42279 -0.022,0.65628 z" inkscape:connector-curvature="0" style="fill:#FFDB6E;fill-opacity:1" id="path3850"/>
      <path inkscape:connector-curvature="0" d="m 43.671497,410.91501 22.1033,0.4893 -0.071,3.2082 -22.1034,-0.4894 z m -0.1171,5.2577 16.2086,0.3589 -0.071,3.2082 -16.2085,-0.3589 z m -0.1169,5.2577 27.7299,0.614 -0.071,3.2082 -27.73,-0.614 z m 0.3508,-15.7733 27.7299,0.6141 -0.071,3.2081 -27.7299,-0.6139 z m -4.3044,-48.4192 -0.4962,22.3178 42.2353,0.9351 0.4962,-22.3178 -42.2353,-0.9351 z m 2.8323,2.9036 36.4429,0.807 -0.3689,16.5883 -36.4429,-0.8069 0.184,-8.2694 0.185,-8.3195 z m -17.4078,7.9381 -0.287,12.9025 -0.3379,15.194 -0.2868,12.9025 12.0813,0.2675 0.2869,-12.9025 46.7276,1.0346 -0.2869,12.9025 12.1313,0.2686 0.2869,-12.9025 0.3378,-15.194 0.287,-12.9024 -12.1313,-0.2687 -0.287,12.9025 -46.7275,-1.0345 0.2869,-12.9026 -12.0813,-0.2675 z m 13.6643,30.1577 -0.7876,35.4199 42.2354,0.9352 0.7877,-35.4199 -42.2355,-0.9352 z m 2.5793,3.0476 36.3934,0.8058 -0.6592,29.6412 -36.3933,-0.8059 0.3301,-14.8452 0.329,-14.7954 z m 54.0428,-9.3586 c 16.343503,-4.8517 14.727503,-35.459 -6.121,-33.5585 -2.2124,-16.5117 -13.3424,-23.4535 -25.1693,-23.7633 -13.0601,-0.3422 -25.2532,6.609 -27.0482,16.3136 -18.738,-1.5392 -30.6449002,10.8698 -30.5937002,21.8635 -0.5977,12.192 7.7330002,21.8142 18.1841002,23.0759 -6.9576,-3.1853 -13.3414,-11.3519 -13.6624,-22.2692 -0.2642,-8.9822 10.0202,-18.7991 29.3267,-17.933 -0.5723,-7.8281 10.9552,-16.8326 23.5391,-16.2781 10.6835,0.4706 20.535,7.841 22.3887,24.0957 7.3107,-1.0194 12.2542,0.2711 14.758503,4.8487 3.5187,6.4315 2.2147,18.3746 -5.602503,23.605 z" style="fill:#FFDB6E;fill-opacity:1" id="path4902"/>
      <path inkscape:connector-curvature="0" d="m 633.0947,38.959653 c 1.3274,-0.27719 2.5754,0.38278 2.8039,1.47682 l 1.5967,7.64486 c 0.2284,1.09407 -0.6511,2.19851 -1.9785,2.47574 l -7.9402,1.65827 c -1.3273,0.27716 -2.5824,-0.38138 -2.8109,-1.47549 l -1.5966,-7.64486 c -0.2284,-1.09397 0.6581,-2.19988 1.9855,-2.47714 l 7.9401,-1.6582 z m -0.5896,1.25336 -6.3085,1.31753 c -1.0547,0.22028 -1.7569,1.11139 -1.571,2.00159 l 1.2999,6.22419 c 0.1859,0.89027 1.1859,1.42577 2.2407,1.20549 l 6.3085,-1.31757 c 1.0548,-0.22028 1.75,-1.10975 1.5641,-2.00009 l -1.2999,-6.22412 c -0.1859,-0.89031 -1.179,-1.42723 -2.2338,-1.20702 z m 3.398,12.19402 c 1.3274,-0.27723 2.5754,0.38277 2.8039,1.47688 l 1.5966,7.64486 c 0.2285,1.09404 -0.6511,2.19848 -1.9784,2.47564 l -7.9402,1.65831 c -1.3273,0.27723 -2.5824,-0.38135 -2.8109,-1.47542 l -1.5966,-7.64483 c -0.2285,-1.09407 0.6581,-2.19991 1.9855,-2.47714 l 7.9401,-1.6583 z m -0.5896,1.25346 -6.3085,1.31746 c -1.0548,0.22032 -1.7569,1.11132 -1.571,2.00163 l 1.2998,6.22412 c 0.1859,0.89027 1.186,1.42577 2.2408,1.20556 l 6.3085,-1.3176 c 1.0548,-0.22029 1.7499,-1.10982 1.564,-2.00013 l -1.2999,-6.22412 c -0.1858,-0.89024 -1.1789,-1.42724 -2.2337,-1.20692 z m 14.9179,10.26365 c 1.3273,-0.27726 2.5754,0.38288 2.804,1.47689 l 1.5965,7.64489 c 0.2284,1.09404 -0.6512,2.19845 -1.9785,2.47561 l -19.8932,4.15468 c -1.3274,0.27727 -2.5825,-0.38131 -2.811,-1.47538 l -1.5966,-7.64486 c -0.2285,-1.09407 0.6582,-2.19995 1.9856,-2.47714 z m -0.5896,1.2535 -18.2616,3.81388 c -1.0548,0.22024 -1.757,1.11125 -1.5712,2.00155 l 1.3,6.22419 c 0.1859,0.89021 1.1859,1.42574 2.2408,1.20535 l 18.2616,-3.81384 c 1.0548,-0.22025 1.7499,-1.10982 1.564,-2.00006 l -1.2998,-6.22415 c -0.186,-0.89027 -1.179,-1.42731 -2.2338,-1.20692 z m 15.9803,-4.86026 c 1.3274,-0.27722 2.5755,0.38275 2.804,1.47685 l 1.5965,7.64483 c 0.2285,1.09414 -0.651,2.19855 -1.9784,2.47575 l -7.9401,1.6583 c -1.3274,0.27719 -2.5824,-0.38145 -2.8109,-1.47549 l -1.5966,-7.64489 c -0.2285,-1.09397 0.6581,-2.19985 1.9855,-2.47707 l 7.94,-1.65828 z m -0.5896,1.2535 -6.3085,1.3175 c -1.0548,0.22024 -1.7569,1.11132 -1.571,2.00152 l 1.2998,6.22426 c 0.186,0.89024 1.186,1.42574 2.2409,1.20542 l 6.3085,-1.3175 c 1.0548,-0.22028 1.7499,-1.10989 1.5639,-2.00009 l -1.2998,-6.22419 c -0.186,-0.89027 -1.179,-1.42727 -2.2338,-1.20692 z m 15.4812,-4.36358 c 1.3273,-0.2772 2.5754,0.38277 2.8039,1.47688 l 1.5965,7.64479 c 0.2286,1.09418 -0.651,2.19859 -1.9783,2.47582 l -7.9401,1.65823 c -1.3275,0.27727 -2.5826,-0.38134 -2.811,-1.47545 l -1.5966,-7.64486 c -0.2284,-1.09404 0.6581,-2.19998 1.9855,-2.47714 l 7.9401,-1.65827 z m -0.5897,1.25349 -6.3084,1.3175 c -1.0548,0.22032 -1.757,1.11129 -1.5711,2.00156 l 1.2998,6.22419 c 0.1861,0.89024 1.1861,1.4258 2.2409,1.20549 l 6.3085,-1.3175 c 1.0548,-0.22032 1.75,-1.10985 1.564,-2.00013 l -1.2998,-6.22419 c -0.186,-0.89023 -1.179,-1.4272 -2.2339,-1.20692 z m 15.4788,-4.36302 c 1.3274,-0.27723 2.5753,0.38278 2.8039,1.47688 l 1.5966,7.6448 c 0.2284,1.09414 -0.6511,2.19855 -1.9785,2.47577 l -7.94,1.65824 c -1.3275,0.27723 -2.5826,-0.38134 -2.811,-1.47549 l -1.5966,-7.64486 c -0.2285,-1.094 0.6581,-2.19988 1.9855,-2.47707 l 7.9401,-1.65827 z m -0.5896,1.25353 -6.3085,1.31743 c -1.0548,0.22024 -1.757,1.11132 -1.5711,2.00156 l 1.2999,6.22415 c 0.186,0.89038 1.186,1.42584 2.2408,1.20556 l 6.3085,-1.3176 c 1.0548,-0.22021 1.7499,-1.10975 1.564,-2.00006 l -1.2999,-6.22415 c -0.1859,-0.89024 -1.1789,-1.42721 -2.2337,-1.20689 z m -32.0161,-8.561 c 1.3274,-0.27723 2.5754,0.38277 2.8039,1.47688 l 1.5967,7.64486 c 0.2284,1.09404 -0.6512,2.19848 -1.9786,2.47561 l -7.94,1.65834 c -1.3274,0.27719 -2.5825,-0.38142 -2.8109,-1.47546 l -1.5966,-7.64486 c -0.2285,-1.09404 0.6581,-2.19991 1.9854,-2.47714 l 7.9401,-1.65823 z m -0.5896,1.25342 -6.3085,1.31753 c -1.0548,0.22025 -1.757,1.11129 -1.5711,2.00153 l 1.2999,6.22419 c 0.1859,0.89023 1.186,1.4258 2.2409,1.20549 l 6.3085,-1.3175 c 1.0548,-0.22028 1.7498,-1.10989 1.5639,-2.00016 l -1.2998,-6.22405 c -0.186,-0.89031 -1.179,-1.42738 -2.2338,-1.20703 z m 15.4812,-4.36351 c 1.3273,-0.27723 2.5753,0.38285 2.8039,1.47692 l 1.5965,7.64486 c 0.2286,1.09393 -0.651,2.19841 -1.9784,2.4756 l -7.9401,1.65831 c -1.3273,0.27719 -2.5824,-0.38135 -2.8109,-1.47535 l -1.5966,-7.64493 c -0.2285,-1.094 0.6581,-2.19984 1.9855,-2.47714 l 7.9401,-1.65827 z m -0.5897,1.25343 -6.3085,1.31756 c -1.0547,0.22021 -1.757,1.11129 -1.571,2.0016 l 1.2999,6.22412 c 0.1859,0.89023 1.186,1.42576 2.2408,1.20545 l 6.3085,-1.31743 c 1.0548,-0.22031 1.7499,-1.10992 1.564,-2.0002 l -1.2999,-6.22415 c -0.1859,-0.89027 -1.179,-1.42724 -2.2338,-1.20695 z m 15.4788,-4.36293 c 1.3273,-0.27719 2.5754,0.38282 2.8039,1.47689 l 1.5965,7.64483 c 0.2285,1.09403 -0.651,2.19837 -1.9784,2.4756 l -7.9401,1.65831 c -1.3274,0.27722 -2.5824,-0.38138 -2.811,-1.47542 l -1.5965,-7.64486 c -0.2285,-1.09401 0.6581,-2.19988 1.9855,-2.47711 l 7.9401,-1.65824 z m -0.5896,1.2534 -6.3085,1.31753 c -1.0549,0.22028 -1.757,1.11129 -1.5711,2.00156 l 1.2999,6.22415 c 0.1859,0.89027 1.186,1.42584 2.2408,1.20546 l 6.3085,-1.31747 c 1.0548,-0.22028 1.7499,-1.10989 1.5639,-2.00012 l -1.2998,-6.22412 c -0.186,-0.89035 -1.179,-1.42731 -2.2337,-1.20699 z m -31.9449,-8.21982 c 1.3274,-0.27715 2.5755,0.38289 2.804,1.47692 l 1.5965,7.64483 c 0.2285,1.09407 -0.6511,2.19848 -1.9784,2.47571 l -7.9402,1.65827 c -1.3273,0.27719 -2.5823,-0.38134 -2.8108,-1.47535 l -1.5966,-7.64486 c -0.2285,-1.09414 0.658,-2.19998 1.9854,-2.47717 l 7.9401,-1.65835 z m -0.5896,1.25354 -6.3084,1.31753 c -1.0549,0.22028 -1.7571,1.11128 -1.5712,2.00152 l 1.3,6.22423 c 0.1858,0.89023 1.1859,1.42566 2.2407,1.20538 l 6.3086,-1.31746 c 1.0547,-0.22032 1.7499,-1.10993 1.564,-2.00009 l -1.3,-6.22426 c -0.1859,-0.89017 -1.1789,-1.42717 -2.2337,-1.20685 z m 15.4812,-4.36352 c 1.3273,-0.2773 2.5755,0.38285 2.8039,1.47682 l 1.5966,7.64493 c 0.2285,1.09407 -0.6511,2.19845 -1.9784,2.4756 l -7.9402,1.65831 c -1.3274,0.27723 -2.5824,-0.38138 -2.811,-1.47542 l -1.5965,-7.64486 c -0.2285,-1.09411 0.6581,-2.19995 1.9855,-2.47718 l 7.9401,-1.6582 z m -0.5897,1.25346 -6.3084,1.3175 c -1.0548,0.22032 -1.757,1.11125 -1.5711,2.00149 l 1.2999,6.22422 c 0.1859,0.89028 1.186,1.42574 2.2408,1.20546 l 6.3085,-1.31753 c 1.0548,-0.22029 1.75,-1.10986 1.5641,-2.00006 l -1.2999,-6.22416 c -0.186,-0.89027 -1.1791,-1.42723 -2.2339,-1.20692 z m 15.4788,-4.36302 c 1.3274,-0.27726 2.5754,0.38281 2.8039,1.47685 l 1.5966,7.64486 c 0.2284,1.09407 -0.6511,2.19845 -1.9785,2.47564 l -7.94,1.65831 c -1.3275,0.27726 -2.5825,-0.38135 -2.811,-1.47542 l -1.5966,-7.64486 c -0.2285,-1.09404 0.6581,-2.19992 1.9855,-2.47715 l 7.9401,-1.65823 z m -0.5896,1.25346 -6.3086,1.31746 c -1.0547,0.22032 -1.757,1.11136 -1.571,2.00163 l 1.2999,6.22419 c 0.1859,0.89027 1.186,1.4257 2.2408,1.20545 l 6.3085,-1.31756 c 1.0548,-0.22035 1.7499,-1.10986 1.5639,-2.00003 l -1.2998,-6.22425 c -0.186,-0.89024 -1.179,-1.42717 -2.2337,-1.20689 z m -6.9508,-34.2858104 c 3.0582,-0.64482 4.6019,1.32158 4.8432,2.47668 l 4.9913,23.9000704 c 0.4251,2.03539 -1.2417,3.87871 -3.2952,4.30761 l -66.1953,13.82471 c -3.0595,0.63895 -4.6278,-1.44742 -4.8625,-2.60389 l -4.6845,-23.04442 c -0.2348,-1.15623 -0.1529,-4.2374704 2.9053,-4.8823904 z m -1.2785,2.92793 -62.694,13.0934704 c -2.8231,0.58969 -2.5787,2.4769 -2.3515,3.53103 l 4.3451,20.17753 c 0.2272,1.05399 2.0249,2.09837 3.5892,1.76521 l 63.0174,-13.4236 c 2.8209,-0.6011 2.0885,-2.24324 1.8681,-3.29884 L 684.455,-1.5816374 c -0.2205,-1.05553 -0.8792,-1.67485 -3.4509,-1.13772 z m 3.1089,-8.5607296 c 3.4841,-0.72767 6.8811,1.4889996 7.6087,4.9730696 l 15.0561,72.0930904 c 0.7277,3.4841 -1.4985,6.87515 -4.9823,7.60272 l -72.0847,15.05477 c -3.4841,0.72761 -6.8734,-1.49071 -7.601,-4.97474 l -15.0561,-72.09312 c -0.7277,-3.4841004 1.4905,-6.8734804 4.9746,-7.6011204 L 684.114,-11.280397 Z m -2.0434,4.0976696 -66.5216,13.8929 c -3.2149,0.67135 -5.2691,3.7795504 -4.6041,6.9634204 l 13.7574,65.87483 c 0.665,3.1838 3.7916,5.20994 7.0063,4.53862 l 66.5215,-13.89286 c 3.2149,-0.67139 5.2613,-3.77799 4.5964,-6.96182 L 689.0691,-2.6425074 c -0.6649,-3.18376 -3.7837,-5.21164 -6.9985,-4.54022 z" style="fill:#FFDB6E;fill-opacity:1" id="path5371"/>
      <path inkscape:connector-curvature="0" d="m 430.23743,47.869129 c -3.6303,12.52925 -11.6029,20.14316 -23.1281,24.15188 -1.4834,2.78393 1.1609,4.45116 3.5503,3.43074 10.9969,-4.24241 18.699,-12.2771 23.128,-24.15183 0.1421,-3.66563 -2.2714,-5.7748 -3.5502,-3.43079 z m 4.8945,6.26401 c -3.1048,11.98062 -10.5753,19.07015 -21.6034,22.55968 -1.3453,2.63978 1.2699,4.33735 3.5503,3.43085 10.5095,-3.73347 17.7043,-11.23859 21.6035,-22.55968 0.017,-3.53559 -2.3892,-5.65219 -3.5504,-3.43085 z m 3.8659,8.72178 c 1.3078,-1.26076 3.2905,8.96338 1.4335,14.00647 2.7509,2.92451 -0.9395,6.87492 -3.8986,4.07113 -4.7035,2.77206 -16.8684,1.6019 -13.715,-1.14333 8.5581,-3.12099 13.2504,-8.29914 16.0241,-16.73344 0.048,-0.0859 0.1054,-0.15228 0.1565,-0.20178 z m -86.7956,-68.4412901 c 14.2594,-14.8903999 37.2089,-15.9424999 51.2661,-2.3583 17.8534,19.9864001 10.411,41.5573001 23.9998,49.9970401 1.7102,9.97757 -14.5824,28.07287 -25.2868,26.40615 -6.5921,-14.056 -36.1127,-8.41452 -50.3464,-22.48429 -14.0575,-13.5848 -13.8919,-36.6702001 0.3673,-51.5605001 z m 3.1179,3.5724 c -5.1053,5.1681 -8.1934,12.1351001 -9.0004,19.3971001 -1.4363,10.5196 3.1517,21.64563 11.8501,27.81383 8.6042,5.40735 18.9841,6.34463 28.5895,8.91838 6.6347,1.4442 13.3965,4.04438 17.6821,9.64406 2.7528,-0.21611 5.3342,-1.85827 7.5217,-3.5465 2.1934,-1.94605 4.4715,-4.05206 6.3899,-6.39632 -0.6632,-0.4155 -1.4544,-0.98767 -2.3479,-1.69395 -5.4684,-4.32185 -9.9495,-9.93073 -14.6188,-18.3226 -0.8573,-1.5397 -2.9171,-5.4728 -3.2648,-6.2315 -0.1453,-0.3173 -0.55,-1.2565 -0.8934,-2.091 -0.806,-1.9588 -1.1288,-2.6806 -1.607,-3.573 -1.4863,-2.774 -3.0457,-3.8189 -5.0273,-3.3665 -0.6566,0.15 -1.1105,0.4968 -1.2519,0.9658 -0.091,0.3003 -0.053,1.004 0.084,1.5876 0.291,1.2502 0.3242,1.417 0.3334,1.8141 0.012,0.4427 -0.058,0.6789 -0.2415,0.8699 -0.1916,0.2 -0.5777,0.3902 -0.8293,0.4108 -0.1285,0.01 -0.6216,-0.069 -1.1035,-0.1807 -1.0638,-0.2476 -1.5755,-0.3212 -2.1109,-0.2994 -0.6595,0.027 -0.8684,0.094 -1.1075,0.3437 -0.4843,0.5057 -0.4712,1.085 0.048,2.5019 0.229,0.6247 0.2792,1.0824 0.1491,1.3561 -0.1297,0.2735 -0.5711,0.6772 -0.907,0.8173 -0.3503,0.1461 -0.9029,0.1311 -1.2901,-0.035 -0.1613,-0.069 -0.5887,-0.2859 -0.9523,-0.485 -0.8126,-0.4451 -1.1397,-0.5563 -1.8885,-0.6128 -1.3075,-0.099 -2.3301,0.1898 -2.9629,0.8505 -0.2402,0.2508 -0.2761,0.3147 -0.3197,0.5613 -0.049,0.2712 -0.012,0.698 0.1138,1.1819 0.072,0.2811 0.048,0.3483 -0.1743,0.3445 -0.2821,0 -0.6433,-0.1709 -0.9115,-0.4301 -0.2887,-0.28 -0.4424,-0.5667 -0.6845,-1.2522 -0.2699,-0.763 -0.2306,-1.4097 0.1337,-2.1393 0.2139,-0.4285 1.1607,-1.4022 1.8404,-1.8886 0.6538,-0.4686 0.9437,-0.5782 1.5065,-0.5489 1.2775,0.068 1.5824,0.035 1.9169,-0.2297 0.1583,-0.1249 0.1859,-0.1947 0.2507,-0.457 0.1029,-0.4153 0.4399,-1.0999 0.741,-1.5216 0.3498,-0.4898 1.0745,-1.1776 1.5488,-1.4712 0.2083,-0.1287 0.5976,-0.3193 0.8686,-0.4193 0.4276,-0.158 0.6081,-0.1858 1.34,-0.2125 0.8559,-0.031 1.3369,-0.1454 1.4006,-0.3246 0.017,-0.048 0.1213,-0.3534 0.2296,-0.695 0.3492,-1.1004 0.618,-1.5695 1.326,-2.2462 0.5477,-0.5235 1.0202,-0.8124 1.732,-1.0609 1.0494,-0.3666 2.091,-0.4338 3.3885,-0.2219 0.8808,0.1439 1.27,0.2667 1.8566,0.5974 0.3703,0.2088 0.4861,0.3144 1.1606,0.9664 0.6107,0.5901 0.8296,0.8286 1.1517,1.2683 0.7333,1.0015 0.9423,1.3695 1.3919,2.4484 2.7941,6.6997 6.6525,13.7411 10.4839,19.12816 1.5657,2.20158 3.5706,4.69324 5.4355,6.74434 0.2935,0.32273 1.4529,1.50462 2.5744,2.62775 1.4246,1.42616 2.2581,2.28117 2.8097,2.88605 1.6564,-2.37567 2.8764,-4.99121 3.2781,-7.94286 -5.3489,-4.4486 -7.7014,-11.21754 -9.259,-17.77354 -2.758,-11.4694 -5.6211,-23.8822001 -14.6434,-32.0828001 -11.9675,-10.8499999 -32.0468,-8.8174999 -42.6861,2.6956 -0.3582,0.3282 -0.7048,0.6657 -1.0451,1.0102 z m 15.1555,18.6547001 c 0.1363,-0.1419 0.2588,-0.2369 0.3263,-0.2596 0.1199,-0.039 0.1066,0.03 -0.1979,1.052 -0.6899,2.3146 -0.977,4.2609 -0.9272,6.2519 0.039,1.5436 0.478,3.818 1.0561,5.4649 0.6641,1.8916 1.4982,3.2905 3.3534,5.6186 1.1705,1.46857 3.3924,2.96406 5.7585,3.87111 2.0381,0.78122 4.0847,1.23637 8.7767,1.95494 1.5361,0.23531 3.3927,0.57484 4.114,0.74359 1.2955,0.30321 2.3153,0.73218 3.5222,1.50787 1.049,0.67415 1.4642,1.00936 2.086,1.6584 1.2961,1.35333 1.9327,2.85405 1.9461,4.58454 0,0.30752 -0.012,0.70657 -0.028,0.87442 -0.044,0.36186 -0.1734,0.52322 -0.469,0.58778 -0.4374,0.0952 -1.3059,-0.51586 -2.2662,-1.58403 -0.2995,-0.33253 -0.8552,-0.90411 -1.2388,-1.27498 l -0.6879,-0.67993 -0.6161,-0.31574 c -1.5306,-0.80271 -3.318,-1.39404 -5.6421,-1.8628 -0.4564,-0.092 -1.7688,-0.31618 -2.9141,-0.50081 -3.6947,-0.59538 -5.1958,-0.91778 -6.7482,-1.43952 -2.4089,-0.80968 -4.4984,-2.08469 -6.3436,-3.86167 -1.0927,-1.05592 -1.8178,-1.92795 -2.6517,-3.24603 -0.8041,-1.27114 -1.8031,-3.31274 -2.2047,-4.47704 -1.487,-4.3104 -1.2598,-9.4013 0.5765,-12.6975 0.3784,-0.6797 1.0099,-1.5443 1.4191,-1.9697 z" style="fill:#FFDB6E;fill-opacity:1" id="path5542"/>
      <path inkscape:transform-center-y="312" inkscape:transform-center-x="180" inkscape:connector-curvature="0" d="m 1046.1303,591.56649 c -1.4049,-1.3474 -3.375,-1.57127 -4.424,-0.44765 -1.0492,1.12338 -0.7588,3.14685 0.6464,4.49411 l 8.3529,8.00808 c 1.405,1.34749 3.3658,1.48176 4.4148,0.35815 1.0485,-1.12373 0.7682,-3.05722 -0.6371,-4.40452 l -8.353,-8.00817 z m -0.9192,1.78238 c 0.3039,0.28311 0.6281,0.62126 0.9332,0.89534 2.2535,2.15181 4.4876,4.29178 6.7315,6.45361 0.4234,0.33569 0.8244,0.80091 0.8026,1.33449 0.041,0.71058 -0.9521,0.82884 -1.4247,0.3292 -2.6428,-2.39388 -5.2275,-4.9259 -7.8031,-7.40034 -0.4812,-0.5504 -1.2975,-1.06606 -1.2542,-1.8482 3e-4,-0.56027 0.589,-0.78763 1.09,-0.5692 0.3363,0.22907 0.6213,0.5212 0.9245,0.80509 z m 0.8961,0.86885 c -0.6094,-0.54882 -1.1795,-1.18271 -1.8521,-1.64089 -0.501,-0.21835 -1.1163,-0.0109 -1.1167,0.54924 -0.043,0.78206 0.8196,1.27978 1.3009,1.83021 2.574,2.47609 5.1156,4.99746 7.7583,7.39108 0.4727,0.49964 1.4782,0.37073 1.437,-0.33991 0.018,-0.52936 -0.3728,-0.96778 -0.7965,-1.30329 -2.2442,-2.16153 -4.48,-4.33225 -6.7312,-6.48655 z m -14.448,14.90516 5.7665,5.52844 c 1.405,1.34743 1.6919,3.3363 0.6431,4.45987 -1.0492,1.12331 -3.0246,0.94346 -4.4299,-0.40372 l -5.7665,-5.52836 c -1.405,-1.34743 -1.692,-3.33642 -0.6431,-4.45995 1.0486,-1.12382 3.0246,-0.94342 4.4299,0.40372 z m 5.8622,-10.65191 10.1803,9.76001 c 1.4051,1.34753 1.6921,3.33647 0.6432,4.45997 -1.0487,1.1238 -3.0247,0.94353 -4.4299,-0.40373 l -10.1804,-9.76014 c -1.4049,-1.34743 -1.692,-3.33626 -0.643,-4.45987 1.0491,-1.12322 3.0246,-0.94342 4.4298,0.40376 z m -43.89811,43.13418 c -1.405,-1.34748 -3.3656,-1.48175 -4.4146,-0.35813 -1.04922,1.12338 -0.76832,3.05721 0.637,4.40443 l 12.33301,11.82398 c 1.405,1.34747 3.3749,1.57128 4.424,0.44759 1.0492,-1.12337 0.7589,-3.14676 -0.6464,-4.49407 l -12.33301,-11.8238 z m -1.4595,1.26429 c 3.6425,3.52426 7.2328,7.06831 10.87771,10.59011 0.5933,0.76352 1.8019,1.28272 2.0427,2.2004 0.1793,0.70928 -0.5842,0.94489 -1.1604,0.74416 -3.4777,-3.30731 -6.92761,-6.59184 -10.40721,-9.89717 -0.8722,-1.01332 -2.289,-1.76287 -2.7891,-2.99669 -0.2743,-0.70446 0.526,-1.03827 1.1204,-0.7015 l 0.1379,0.0518 0.1778,0.009 z m -0.2788,-0.095 c -0.5945,-0.33685 -1.3579,0.0326 -1.0836,0.73702 0.4999,1.23371 1.8748,1.95373 2.7469,2.96749 3.4799,3.30504 6.95681,6.6131 10.43401,9.92048 0.5755,0.20034 1.2909,-0.0195 1.1115,-0.72878 -0.2404,-0.91819 -1.388,-1.45025 -1.9811,-2.21391 -3.64531,-3.52118 -7.28781,-7.04509 -10.93071,-10.56897 l -0.1494,-0.0574 -0.147,-0.0564 z m -5.30532,8.57149 9.68052,9.08489 c 1.4191,1.33224 1.6921,3.33629 0.643,4.45986 -1.0487,1.12374 -3.0105,0.9283 -4.4297,-0.40369 l -9.68062,-9.08494 c -1.4197,-1.33141 -1.6919,-3.33621 -0.6431,-4.4598 1.0492,-1.12337 3.0106,-0.92825 4.4299,0.40368 z m 16.57833,-16.05626 8.3478,8.00319 c 1.405,1.34748 1.6921,3.3363 0.6431,4.45986 -1.0487,1.12381 -3.0246,0.94352 -4.4299,-0.40372 l -8.34771,-8.00318 c -1.405,-1.34747 -1.6921,-3.33623 -0.6431,-4.4598 1.0487,-1.12388 3.02461,-0.94357 4.42981,0.40365 z m 39.8329,-54.30599 c -1.8724,-1.89154 -4.9885,-2.77849 -8.67,-0.88637 -6.886,3.60999 -13.8994,10.53769 -17.688,19.44532 -4.5708,10.74741 -5.1101,23.69086 -4.1526,28.38512 0.9574,4.69454 3.0164,17.12264 0.1419,23.78527 -2.1227,4.92007 -6.3907,7.79868 -15.04031,14.31517 -8.7627,5.57424 -3.2246,17.34865 5.96261,11.36647 8.2375,-5.00916 16.0947,-11.26378 19.6957,-19.70048 4.0735,-9.54375 2.5118,-26.2773 1.7092,-31.45307 -0.8023,-5.17625 -0.5365,-14.10874 3.1573,-21.83335 3.3621,-7.03117 9.963,-13.03349 14.6867,-14.73436 3.0297,-2.14123 2.6054,-6.25752 0.1975,-8.68915 z m -1.6374,1.2553 c 1.0224,0.83647 1.3867,2.13831 1.2263,3.27433 -0.3204,2.77209 -3.6371,2.84902 -5.2816,4.46071 -5.2112,4.26229 -9.9756,9.44076 -12.3423,16.01313 -3.0051,7.21418 -2.6911,15.63885 -1.8445,23.81846 0.8261,10.41633 1.3746,21.64693 -3.6979,30.19246 -4.0446,6.08261 -9.742,10.87222 -15.981,14.62455 -1.9036,1.184 -4.57121,3.13876 -7.11171,1.33401 -1.6156,-1.89767 -0.73,-4.64637 0.5582,-6.08363 5.21761,-5.16343 12.29221,-8.53865 16.49561,-14.7769 4.435,-7.38972 2.6054,-17.21348 1.5701,-26.01795 -1.0681,-6.54362 -0.4768,-12.89607 0.9375,-18.95712 2.0284,-11.48485 8.677,-21.21137 18.1267,-27.0962 2.0119,-1.08392 4.8864,-2.68553 7.3457,-0.7868 z m 24.4961,20.32573 c -2.5467,-2.28991 -6.7193,-2.52308 -8.7867,0.5354 -1.5634,4.71301 -7.4287,11.41769 -14.4409,14.96976 -5.8834,2.98052 -11.6784,4.24732 -16.8454,4.28168 0.3427,4.21965 0.8827,8.28139 1.0579,11.81785 6.1403,-0.37043 13.7121,-1.65867 21.06,-4.9912 8.8995,-4.03623 15.7275,-11.21264 19.1523,-18.1213 1.7926,-3.69212 0.7842,-6.71142 -1.1966,-8.49252 z m -54.6745,19.11 c -7.3398,-0.15785 -16.00651,0.0164 -22.42971,2.93922 -8.42902,3.83587 -14.45572,11.83633 -19.25332,20.12459 -5.7501,9.25729 6.365,14.32699 11.7166,5.50213 6.3108,-8.74529 9.04452,-13.09206 13.95932,-15.35146 4.7925,-2.2031 11.13731,-2.88567 16.97571,-2.3004 -0.6785,-3.95267 -1.226,-7.14047 -0.9693,-10.91377 z" style="fill:#FFDB6E;fill-opacity:1" id="path4161"/>
    </g>
    <path id="path3353" d="m 1587.1869,197.19975 -2.2871,6.21821 c -1.1956,0.11822 -2.3698,0.32529 -3.5248,0.58219 l -4.1383,-5.22338 -7.9639,3.59618 1.1473,6.5165 c -0.957,0.68832 -1.8812,1.44303 -2.7509,2.23877 l -6.2074,-2.40228 -5.1249,7.06831 4.2666,5.11078 c -0.4809,1.06726 -0.9255,2.15899 -1.2814,3.29263 l -6.5491,1.01815 -0.8898,8.67571 6.2092,2.296 c 0.1189,1.1875 0.3273,2.36823 0.5833,3.51533 l -5.2126,4.11156 3.5807,7.98819 6.5694,-1.12832 c 0.6854,0.94925 1.4084,1.87856 2.1996,2.74198 l -2.4117,6.20539 7.0733,5.08853 5.0687,-4.24339 c 1.0665,0.48218 2.1645,0.92455 3.2977,1.28174 l 1.0529,6.56071 8.6858,0.8905 2.3627,-6.2105 c 1.1321,-0.11636 2.2646,-0.31335 3.3602,-0.55419 l 4.231,5.15196 7.9589,-3.54722 -1.0941,-6.64135 c 0.9128,-0.66132 1.786,-1.37614 2.619,-2.13552 l 6.2875,2.41063 5.1275,-7.09539 -4.2261,-5.15606 c 0.4519,-1.00944 0.8046,-2.07619 1.1451,-3.14503 l 6.6422,-1.09397 0.8898,-8.6757 -6.2429,-2.40603 c -0.1158,-1.12744 -0.2824,-2.23365 -0.5218,-3.32481 l 5.1875,-4.21776 -3.5834,-7.96147 -6.6016,1.0486 c -0.6591,-0.91051 -1.3748,-1.78675 -2.1315,-2.61799 l 2.3754,-6.23577 -7.0693,-5.13764 -5.1929,4.23116 c -1.0352,-0.46318 -2.1147,-0.89093 -3.2124,-1.23704 l -0.04,0 -0.9774,-6.55365 -8.6856,-0.89064 z m 2.8386,14.34686 c 5.9959,0.61496 11.1479,3.62967 14.6364,7.98941 l -2.1786,4.49885 c -2.7061,-4.40453 -7.3657,-7.54056 -12.9071,-8.10878 -9.4456,-0.9684 -17.886,5.9004 -18.8547,15.34507 -0.9686,9.44423 5.9013,17.88335 15.3474,18.85189 9.4455,0.9684 17.8859,-5.90033 18.8546,-15.34507 0.1144,-1.11628 0.1249,-2.22364 0.028,-3.29997 l -4.1051,0.28016 2.602,-5.43104 2.6401,-5.40921 3.419,4.96094 3.3604,5.00875 -3.5328,0.26691 c 0.1164,1.33416 0.1106,2.6902 -0.031,4.07245 -1.2167,11.86279 -11.8191,20.48818 -23.684,19.27167 -11.8645,-1.21673 -20.4916,-11.81297 -19.2748,-23.67626 1.2167,-11.86279 11.815,-20.49285 23.6801,-19.27634 z m -0.8492,8.98107 c 7.0013,0.71769 12.0933,6.97269 11.3753,13.97288 -0.718,7.00028 -6.9733,12.08708 -13.9745,11.36931 -7.0013,-0.71777 -12.0805,-6.96687 -11.3625,-13.96713 0.7179,-7.00041 6.9603,-12.09297 13.9617,-11.37506 z" inkscape:connector-curvature="0" style="fill:#FFDB6E" inkscape:transform-center-x="-23.04" inkscape:transform-center-y="-8.6400001"/>
    <path inkscape:connector-curvature="0" id="path3892" d="m 1459.0554,-15.921186 a 74.999976,74.999976 0 0 0 -75,74.99997 74.999976,74.999976 0 0 0 4.4206,25.1302 33.333323,33.333323 0 0 1 28.9127,-16.79687 33.333323,33.333323 0 0 1 33.3333,33.333316 33.333323,33.333323 0 0 1 -16.8034,28.89972 74.999976,74.999976 0 0 0 25.1368,4.43361 74.999976,74.999976 0 0 0 75,-74.999976 74.999976,74.999976 0 0 0 -75,-74.99997 z" style="opacity:1;fill:#FFDB6E;fill-opacity:1;stroke:none;stroke-width:1;stroke-linecap:round;stroke-linejoin:round;stroke-miterlimit:4;stroke-dasharray:none;stroke-opacity:1"/>
    <path id="path3882" d="m 1472.0475,14.250324 a 22.5,22.5 0 0 0 -22.5,22.5 22.5,22.5 0 0 0 1.3261,7.53906 10,10 0 0 1 8.6739,-5.03906 10,10 0 0 1 10,10 10,10 0 0 1 -5.0411,8.66992 22.5,22.5 0 0 0 7.5411,1.33008 22.5,22.5 0 0 0 22.5,-22.5 22.5,22.5 0 0 0 -22.5,-22.5 z" style="opacity:1;fill:#FFDB6E;fill-opacity:1;stroke:none;stroke-width:1;stroke-linecap:round;stroke-linejoin:round;stroke-miterlimit:4;stroke-dasharray:none;stroke-opacity:1" inkscape:connector-curvature="0"/>
    <path style="opacity:1;fill:#FFDB6E;fill-opacity:1;stroke:none;stroke-width:1;stroke-linecap:round;stroke-linejoin:round;stroke-miterlimit:4;stroke-dasharray:none;stroke-opacity:1" d="m 596.93872,1463.126 a 50,50 0 0 1 -33.43411,50.8413 50,50 0 0 1 -57.67179,-19.0768 50,50 0 0 0 2.56899,12.7775 50,50 0 0 0 63.61874,30.8651 50,50 0 0 0 30.86512,-63.6188 50,50 0 0 0 -5.94695,-11.7883 z" id="circle3935" inkscape:connector-curvature="0"/>
  </g>
</svg>